<?xml version="1.0" encoding="iso-8859-1"?>
<!-- Generator: Adobe Illustrator 19.2.1, SVG Export Plug-In . SVG Version: 6.00 Build 0)  -->
<svg version="1.1" id="Layer_1" xmlns="http://www.w3.org/2000/svg" xmlns:xlink="http://www.w3.org/1999/xlink" x="0px" y="0px"
	 viewBox="0 0 240 240" style="enable-background:new 0 0 240 240;" xml:space="preserve">
<g>
	<rect x="12" y="12" style="fill:#1D1D1D;" width="216" height="216"/>
</g>
<g>
	<path style="fill:#1D1D1D;" d="M220,20v200H20V20H220 M228,12H12v216h216V12L228,12z"/>
</g>
<g>
	<rect x="16" y="110.293" style="fill:#BDBDBD;" width="207.989" height="19.217"/>
	<path style="fill:#1D1D1D;" d="M219.989,114.293v11.217H20v-11.217H219.989 M227.989,106.293H12v27.217h215.989V106.293
		L227.989,106.293z"/>
</g>
<g>
	<rect x="16.16" y="16.16" style="fill-rule:evenodd;clip-rule:evenodd;fill:#C83539;" width="64.677" height="93.68"/>
	<path style="fill:#1D1D1D;" d="M76.677,20.321v85.359H20.321V20.321H76.677 M84.998,12H12v102h72.998V12L84.998,12z"/>
</g>
<g>
	<rect x="16.236" y="129.735" style="fill-rule:evenodd;clip-rule:evenodd;fill:#66AD17;" width="64.526" height="93.831"/>
	<g>
		<path style="fill:#1D1D1D;" d="M76.526,133.971v85.359H20.471v-85.359H76.526 M84.998,125.5H12v102.302h72.998V125.5L84.998,125.5
			z"/>
	</g>
</g>
<g>
	<rect x="159.162" y="16.16" style="fill-rule:evenodd;clip-rule:evenodd;fill:#366FD9;" width="64.678" height="93.68"/>
	<path style="fill:#1D1D1D;" d="M219.679,20.321v85.359h-56.357V20.321H219.679 M228,12h-72.998v102H228V12L228,12z"/>
</g>
<g>
	<rect x="159.162" y="129.66" style="fill-rule:evenodd;clip-rule:evenodd;fill:#366FD9;" width="64.678" height="93.981"/>
	<g>
		<path style="fill:#1D1D1D;" d="M219.679,133.821v85.661h-56.357v-85.661H219.679 M228,125.5h-72.998v102.302H228V125.5L228,125.5z
			"/>
	</g>
</g>
<g>
	<rect x="81.24" y="16.236" style="fill-rule:evenodd;clip-rule:evenodd;fill:#66AD17;" width="78.026" height="93.528"/>
	<path style="fill:#1D1D1D;" d="M155.031,20.471v85.057H85.476V20.471H155.031 M163.502,12H77.005v102h86.498V12L163.502,12z"/>
</g>
<g>
	<rect x="81.165" y="129.66" style="fill-rule:evenodd;clip-rule:evenodd;fill:#C83539;" width="78.177" height="93.981"/>
	<g>
		<path style="fill:#1D1D1D;" d="M155.182,133.821v85.661H85.325v-85.661H155.182 M163.502,125.5H77.005v102.302h86.498V125.5
			L163.502,125.5z"/>
	</g>
</g>
<g>
	<path style="fill-rule:evenodd;clip-rule:evenodd;fill:#BDBDBD;" d="M159.502,139.988c-11.075,0-20.086-9.011-20.086-20.087
		c0-11.076,9.011-20.086,20.086-20.086c11.076,0,20.087,9.011,20.087,20.086C179.589,130.978,170.578,139.988,159.502,139.988z"/>
	<path style="fill:#1D1D1D;" d="M159.502,103.815c8.87,0,16.086,7.216,16.086,16.086c0,8.871-7.216,16.088-16.086,16.088
		s-16.086-7.217-16.086-16.088C143.416,111.031,150.632,103.815,159.502,103.815 M159.502,95.815
		c-13.301,0-24.086,10.784-24.086,24.086c0,13.303,10.785,24.088,24.086,24.088c13.303,0,24.086-10.785,24.086-24.088
		C183.588,106.599,172.805,95.815,159.502,95.815L159.502,95.815z"/>
</g>
<rect style="fill-rule:evenodd;clip-rule:evenodd;fill:none;" width="240" height="240"/>
</svg>
