<?xml version="1.0" encoding="iso-8859-1"?>
<!-- Generator: Adobe Illustrator 19.2.1, SVG Export Plug-In . SVG Version: 6.00 Build 0)  -->
<svg version="1.1" id="Layer_1" xmlns="http://www.w3.org/2000/svg" xmlns:xlink="http://www.w3.org/1999/xlink" x="0px" y="0px"
	 viewBox="0 0 240 240" style="enable-background:new 0 0 240 240;" xml:space="preserve">
<g style="opacity:0.31;">
	<g>
		<rect x="12" y="12" style="fill-rule:evenodd;clip-rule:evenodd;fill:#D6806C;" width="216" height="216"/>
	</g>
</g>
<g>
	<rect x="16" y="16" style="fill-rule:evenodd;clip-rule:evenodd;fill:#D6806C;" width="100.001" height="100"/>
	<path style="fill:#1D1D1D;" d="M112.002,20v92H20V20H112.002 M120.002,12H12v108h108.001V12L120.002,12z"/>
</g>
<g>
	<rect x="124" y="16" style="fill-rule:evenodd;clip-rule:evenodd;fill:#BFB23A;" width="100.002" height="100"/>
	<path style="fill:#1D1D1D;" d="M220.001,20v92H128V20H220.001 M228.001,12H120v108h108.001V12L228.001,12z"/>
</g>
<g>
	<rect x="16" y="124" style="fill-rule:evenodd;clip-rule:evenodd;fill:#58A5CC;" width="100.001" height="100"/>
	<path style="fill:#1D1D1D;" d="M112.002,128v92H20v-92H112.002 M120.002,120H12v108h108.001V120L120.002,120z"/>
</g>
<g>
	<rect x="124" y="124" style="fill-rule:evenodd;clip-rule:evenodd;fill:#55AB65;" width="100.002" height="100"/>
	<path style="fill:#1D1D1D;" d="M220.001,128v92H128v-92H220.001 M228.001,120H120v108h108.001V120L228.001,120z"/>
</g>
<g>
	<g>
		<path style="fill-rule:evenodd;clip-rule:evenodd;fill:#1D1D1D;" d="M169.358,144.43v12.215h12.215V144.43H169.358z
			 M144.93,181.073h61.071v-12.215H144.93V181.073z M169.358,205.502h12.215v-12.214h-12.215V205.502z M85.858,144.482
			l-20.322,20.322l-20.322-20.322l-10.162,10.161l20.323,20.323l-20.323,20.322l10.162,10.161l20.322-20.322l20.322,20.322
			l10.162-10.161l-20.323-20.322l20.323-20.323L85.858,144.482z M144.93,58.927v12.215h61.071V58.927H144.93z M71.641,34.499H59.427
			v24.428H34.999v12.215h24.428v24.428h12.214V71.142H96.07V58.927H71.641V34.499z"/>
	</g>
</g>
<rect style="fill-rule:evenodd;clip-rule:evenodd;fill:none;" width="240" height="240"/>
</svg>
