<?xml version="1.0" encoding="iso-8859-1"?>
<!-- Generator: Adobe Illustrator 19.2.1, SVG Export Plug-In . SVG Version: 6.00 Build 0)  -->
<svg version="1.1" id="Layer_1" xmlns="http://www.w3.org/2000/svg" xmlns:xlink="http://www.w3.org/1999/xlink" x="0px" y="0px"
	 viewBox="0 0 240 240" style="enable-background:new 0 0 240 240;" xml:space="preserve">
<g>
	<polygon style="fill:#55AB65;" points="189.513,136.626 150.609,136.627 150.606,103.369 189.513,103.369 189.513,77.315 
		232.196,119.999 189.514,162.681 	"/>
	<path style="fill:#1D1D1D;" d="M193.513,86.972l33.026,33.026l-33.026,33.026l0-20.398l-38.904,0.001l-0.003-25.258l38.907,0
		L193.513,86.972 M185.512,67.658l0,19.314l0,12.397l-30.907,0l-8.001,0l0.001,8.001l0.003,25.258l0.001,7.999l7.999,0l30.904-0.001
		l0,12.398l0,19.313l13.657-13.657l33.026-33.026l5.657-5.657l-5.657-5.657l-33.026-33.026L185.512,67.658L185.512,67.658z"/>
</g>
<g>
	<polygon style="fill:#BFB23A;" points="76.817,190.164 102.872,190.164 102.871,151.26 136.129,151.257 136.129,190.164 
		162.184,190.163 119.5,232.847 	"/>
	<path style="fill:#1D1D1D;" d="M132.129,155.257l0,38.907l20.397,0L119.5,227.19l-33.026-33.026l20.398,0l-0.001-38.904
		L132.129,155.257 M140.129,147.256l-8.001,0.001l-25.258,0.003l-7.999,0.001l0,7.999l0.001,30.904l-12.398,0l-19.313,0
		l13.657,13.657l33.026,33.026l5.657,5.657l5.657-5.657l33.026-33.026l13.657-13.657l-19.314,0l-12.397,0l0-30.907L140.129,147.256
		L140.129,147.256z"/>
</g>
<g>
	<path style="fill-rule:evenodd;clip-rule:evenodd;fill:#BDBDBD;stroke:#1D1D1D;stroke-width:8;stroke-miterlimit:10;" d="
		M120.001,62.625c31.688,0,57.374,25.688,57.374,57.375s-25.686,57.374-57.374,57.374S62.625,151.687,62.625,120
		S88.314,62.625,120.001,62.625z"/>
	<path style="fill:#1D1D1D;" d="M111.205,163.92h18.524v-17.05h-18.524V163.92z M88.593,104.394h17.903
		c0-3.264,0.999-6.409,2.997-9.438c1.999-3.029,5.388-4.543,10.167-4.543c4.861,0,8.209,1.23,10.043,3.686
		c1.834,2.458,2.75,5.183,2.75,8.171c0,2.595-0.821,4.976-2.469,7.138c-0.907,1.26-2.1,2.419-3.583,3.481l-4.508,3.363
		c-4.447,3.303-7.206,6.224-8.277,8.76c-1.071,2.537-1.73,7.129-1.977,13.776h16.79c0.04-3.147,0.308-5.466,0.802-6.962
		c0.782-2.36,2.368-4.425,4.758-6.194l4.386-3.246c4.449-3.303,7.456-6.017,9.021-8.141c2.679-3.499,4.016-7.806,4.016-12.92
		c0-8.337-3.086-14.63-9.261-18.878c-6.175-4.247-13.93-6.372-23.264-6.372c-7.104,0-13.093,1.496-17.964,4.484
		C93.198,85.241,89.088,93.185,88.593,104.394L88.593,104.394z"/>
</g>
<g>
	<polygon style="fill:#58A5CC;" points="33.429,94.807 51.853,76.383 14.342,38.875 37.856,15.355 75.369,52.867 93.791,34.443 
		93.791,94.807 	"/>
	<path style="fill:#1D1D1D;" d="M37.857,21.012l37.512,37.511l14.423-14.423v46.706H43.086l14.424-14.424l-37.51-37.509
		L37.857,21.012 M37.856,9.698l-5.657,5.658L14.342,33.218l-5.656,5.657l5.656,5.656l31.853,31.852l-8.767,8.767L23.772,98.807
		h19.313h46.705h8v-8V44.101V24.786L84.134,38.444l-8.766,8.766L43.514,15.356L37.856,9.698L37.856,9.698z"/>
</g>
<rect style="fill-rule:evenodd;clip-rule:evenodd;fill:none;" width="240" height="240"/>
</svg>
