<?xml version="1.0" encoding="iso-8859-1"?>
<!-- Generator: Adobe Illustrator 19.2.1, SVG Export Plug-In . SVG Version: 6.00 Build 0)  -->
<svg version="1.1" id="Layer_1" xmlns="http://www.w3.org/2000/svg" xmlns:xlink="http://www.w3.org/1999/xlink" x="0px" y="0px"
	 viewBox="0 0 240 240" style="enable-background:new 0 0 240 240;" xml:space="preserve">
<g>
	<polygon style="fill:none;" points="159.691,124.616 159.691,80.309 115.385,80.309 115.385,36 12,36 12,139.384 56.307,139.384 
		56.307,183.691 100.612,183.691 100.612,227.999 204,227.999 204,124.616 	"/>
</g>
<g>
	<rect x="16" y="40" style="fill-rule:evenodd;clip-rule:evenodd;fill:#40676B;" width="95.385" height="95.384"/>
	<path style="fill:#1D1D1D;" d="M107.385,44v87.384H20V44H107.385 M115.385,36H12v103.384h103.385V36L115.385,36z"/>
</g>
<g>
	<rect x="60.307" y="84.308" style="fill-rule:evenodd;clip-rule:evenodd;fill:#417C82;" width="95.385" height="95.384"/>
	<path style="fill:#1D1D1D;" d="M151.691,88.308v87.384H64.307V88.308H151.691 M159.691,80.308H56.307v103.384h103.385V80.308
		L159.691,80.308z"/>
</g>
<g>
	<rect x="104.307" y="128.615" style="fill-rule:evenodd;clip-rule:evenodd;fill:#48AAB5;" width="95.385" height="95.384"/>
	<path style="fill:#1D1D1D;" d="M195.691,132.615v87.384h-87.385v-87.384H195.691 M203.691,124.615H100.307v103.384h103.385V124.615
		L203.691,124.615z"/>
</g>
<g>
	<rect x="111.999" y="15.479" style="fill:#BDBDBD;" width="111.99" height="19.217"/>
	<path style="fill:#1D1D1D;" d="M219.989,19.478v11.217h-103.99V19.478H219.989 M227.989,11.478h-119.99v27.217h119.99V11.478
		L227.989,11.478z"/>
</g>
<g>
	<rect x="111.999" y="50.479" style="fill:#BDBDBD;" width="111.99" height="19.217"/>
	<path style="fill:#1D1D1D;" d="M219.989,54.478v11.217h-103.99V54.478H219.989 M227.989,46.478h-119.99v27.217h119.99V46.478
		L227.989,46.478z"/>
</g>
<g>
	<path style="fill-rule:evenodd;clip-rule:evenodd;fill:#BDBDBD;" d="M151.307,80.174c-11.076,0-20.087-9.011-20.087-20.088
		C131.22,49.011,140.23,40,151.307,40c11.075,0,20.086,9.011,20.086,20.086C171.393,71.163,162.382,80.174,151.307,80.174z"/>
	<path style="fill:#1D1D1D;" d="M151.306,44c8.87,0,16.086,7.216,16.086,16.086c0,8.871-7.216,16.088-16.086,16.088
		s-16.086-7.217-16.086-16.088C135.22,51.216,142.436,44,151.306,44 M151.306,36c-13.301,0-24.086,10.784-24.086,24.086
		c0,13.303,10.785,24.088,24.086,24.088c13.303,0,24.086-10.785,24.086-24.088C175.392,46.784,164.609,36,151.306,36L151.306,36z"/>
</g>
<g>
	<path style="fill-rule:evenodd;clip-rule:evenodd;fill:#BDBDBD;" d="M186.253,45.174c-11.076,0-20.087-9.011-20.087-20.088
		C166.166,14.011,175.177,5,186.253,5c11.075,0,20.086,9.011,20.086,20.086C206.339,36.163,197.328,45.174,186.253,45.174z"/>
	<path style="fill:#1D1D1D;" d="M186.253,9c8.87,0,16.086,7.216,16.086,16.086c0,8.871-7.216,16.088-16.086,16.088
		s-16.086-7.217-16.086-16.088C170.166,16.216,177.383,9,186.253,9 M186.253,1c-13.301,0-24.086,10.784-24.086,24.086
		c0,13.303,10.785,24.088,24.086,24.088c13.303,0,24.086-10.785,24.086-24.088C210.339,11.784,199.556,1,186.253,1L186.253,1z"/>
</g>
<rect style="fill-rule:evenodd;clip-rule:evenodd;fill:none;" width="240" height="240"/>
</svg>
