<?xml version="1.0" encoding="iso-8859-1"?>
<!-- Generator: Adobe Illustrator 19.2.1, SVG Export Plug-In . SVG Version: 6.00 Build 0)  -->
<svg version="1.1" id="Layer_1" xmlns="http://www.w3.org/2000/svg" xmlns:xlink="http://www.w3.org/1999/xlink" x="0px" y="0px"
	 viewBox="0 0 240 240" style="enable-background:new 0 0 240 240;" xml:space="preserve">
<g>
	<polygon style="fill-rule:evenodd;clip-rule:evenodd;fill:#BFB23A;" points="20.151,147.448 120.071,78.753 219.99,147.448 
		120.073,216.146 	"/>
	<path style="fill:#1D1D1D;" d="M120.071,83.608l92.859,63.841l-92.857,63.843l-92.861-63.843L120.071,83.608 M120.071,73.899
		L13.091,147.449L120.073,221l106.978-73.551L120.071,73.899L120.071,73.899z"/>
</g>
<g>
	<path style="fill-rule:evenodd;clip-rule:evenodd;fill:#58A5CC;" d="M20.151,92.562l99.92-68.695l99.919,68.695l-99.917,68.697
		L20.151,92.562z M120.001,54.714C97.669,54.714,79.5,70.543,79.5,90c0,19.456,18.169,35.285,40.501,35.285
		c22.331,0,40.499-15.829,40.499-35.285C160.5,70.543,142.332,54.714,120.001,54.714z"/>
	<path style="fill:#1D1D1D;" d="M120.071,28.72l92.859,63.841l-92.857,63.843L27.212,92.562L120.071,28.72 M120.001,129.286
		c24.537,0,44.499-17.623,44.499-39.286s-19.962-39.286-44.499-39.286C95.463,50.714,75.5,68.338,75.5,90
		S95.463,129.286,120.001,129.286 M120.071,19.012L13.091,92.562l106.983,73.551l106.978-73.551L120.071,19.012L120.071,19.012z
		 M120.001,121.286C99.844,121.286,83.5,107.278,83.5,90c0-17.278,16.344-31.286,36.501-31.286
		c20.157,0,36.499,14.007,36.499,31.286C156.5,107.278,140.159,121.286,120.001,121.286L120.001,121.286z"/>
</g>
<rect style="fill-rule:evenodd;clip-rule:evenodd;fill:none;" width="240" height="240"/>
</svg>
