<?xml version="1.0" encoding="iso-8859-1"?>
<!-- Generator: Adobe Illustrator 19.2.1, SVG Export Plug-In . SVG Version: 6.00 Build 0)  -->
<svg version="1.1" id="Layer_1" xmlns="http://www.w3.org/2000/svg" xmlns:xlink="http://www.w3.org/1999/xlink" x="0px" y="0px"
	 viewBox="0 0 240 240" style="enable-background:new 0 0 240 240;" xml:space="preserve">
<g>
	<polygon style="fill-rule:evenodd;clip-rule:evenodd;fill:#D6806C;" points="20.58,147.448 120.5,78.753 220.42,147.448 
		120.502,216.146 	"/>
	<path style="fill:#1D1D1D;" d="M120.5,83.608l92.859,63.841l-92.857,63.843l-92.862-63.843L120.5,83.608 M120.5,73.899
		L13.52,147.449L120.502,221l106.978-73.551L120.5,73.899L120.5,73.899z"/>
</g>
<g>
	<polygon style="fill-rule:evenodd;clip-rule:evenodd;fill:#55AB65;" points="20.151,92.562 120.071,23.866 219.99,92.562 
		120.073,161.259 	"/>
	<path style="fill:#1D1D1D;" d="M120.071,28.72l92.859,63.841l-92.857,63.843L27.212,92.562L120.071,28.72 M120.071,19.012
		L13.091,92.562l106.983,73.551l106.978-73.551L120.071,19.012L120.071,19.012z"/>
</g>
<g>
	<polygon style="fill-rule:evenodd;clip-rule:evenodd;fill:#58A5CC;" points="60.916,119.936 120.071,78.639 179.227,119.936 
		120.072,161.235 	"/>
	<path style="fill:#1D1D1D;" d="M120.071,83.517l52.168,36.419l-52.167,36.42l-52.169-36.42L120.071,83.517 M120.071,73.76
		l-66.144,46.176l66.145,46.177l66.142-46.177L120.071,73.76L120.071,73.76z"/>
</g>
<rect style="fill-rule:evenodd;clip-rule:evenodd;fill:none;" width="240" height="240"/>
</svg>
