<?xml version="1.0" encoding="iso-8859-1"?>
<!-- Generator: Adobe Illustrator 19.2.1, SVG Export Plug-In . SVG Version: 6.00 Build 0)  -->
<svg version="1.1" id="Layer_1" xmlns="http://www.w3.org/2000/svg" xmlns:xlink="http://www.w3.org/1999/xlink" x="0px" y="0px"
	 viewBox="0 0 240 240" style="enable-background:new 0 0 240 240;" xml:space="preserve">
<g>
	<rect x="16" y="16" style="fill:#48AAB5;" width="208" height="208"/>
	<path style="fill:#1D1D1D;" d="M220,20v200H20V20H220 M228,12H12v216h216V12L228,12z"/>
</g>
<g>
	<path style="fill:none;" d="M12,12v108h108V12H12z M120,120v108h108V120H120z"/>
</g>
<g>
	<rect x="12" y="12" style="fill-rule:evenodd;clip-rule:evenodd;fill:#448890;" width="108" height="108"/>
</g>
<g>
	<rect x="120" y="120" style="fill-rule:evenodd;clip-rule:evenodd;fill:#448890;" width="108" height="108"/>
</g>
<g>
	<path style="fill:#1D1D1D;" d="M220,20v200H20V20H220 M228,12H12v216h216V12L228,12z"/>
</g>
<g>
	<path style="fill:#1D1D1D;" d="M12,12v216h216V12H12z M120,205.667c-47.312,0-85.667-38.354-85.667-85.667
		c0-47.312,38.354-85.667,85.667-85.667S205.667,72.688,205.667,120C205.667,167.312,167.312,205.667,120,205.667z"/>
</g>
<g>
	<rect x="135.998" y="4" style="fill-rule:evenodd;clip-rule:evenodd;fill:#BDBDBD;" width="100.002" height="100"/>
	<path style="fill:#1D1D1D;" d="M232,8v92h-92.001V8H232 M240,0H131.999v108H240V0L240,0z"/>
</g>
<g>
	<g>
		<polygon style="fill-rule:evenodd;clip-rule:evenodd;fill:#1D1D1D;" points="216.018,34.643 205.856,24.482 185.534,44.804 
			165.212,24.482 155.05,34.643 175.373,54.966 155.05,75.288 165.212,85.449 185.534,65.127 205.856,85.449 216.018,75.288 
			195.695,54.966 		"/>
	</g>
</g>
<rect style="fill-rule:evenodd;clip-rule:evenodd;fill:none;" width="240" height="240"/>
</svg>
