/* XPM */
static char * RAVIX3_xpm[] = {
"100 42 227 2",
"  	c #000000000000",
". 	c #F8F8F8F8F8F8",
"X 	c #E8E8E8E8E8E8",
"o 	c #D8D8D8D8D8D8",
"O 	c #F0F0F0F0F0F0",
"+ 	c #B0B0B0B0B0B0",
"@ 	c #B0B0B0B0B8B8",
"# 	c #B8B8B8B8C0C0",
"$ 	c #F0F0F0F0F8F8",
"% 	c #98989898A0A0",
"& 	c #888890909090",
"* 	c #C0C0C0C0C0C0",
"= 	c #404040404848",
"- 	c #A8A8A8A8A8A8",
"; 	c #B0B0B0B0C0C0",
": 	c #A0A0A0A0A8A8",
"> 	c #E0E0E0E0E8E8",
", 	c #909090909898",
"< 	c #202020202020",
"1 	c #888888888888",
"2 	c #A8A8B0B0B0B0",
"3 	c #A0A0A0A0A0A0",
"4 	c #303030303838",
"5 	c #A8A8A8A8B0B0",
"6 	c #F0F0F8F8F8F8",
"7 	c #D8D8D8D8E0E0",
"8 	c #787878787878",
"9 	c #181818181818",
"0 	c #F0F0E8E8E8E8",
"q 	c #E0E0E8E8E8E8",
"w 	c #E0E0E0E0E0E0",
"e 	c #D0D0D0D0D8D8",
"r 	c #C8C8D0D0D0D0",
"t 	c #D0D0D8D8D8D8",
"y 	c #F8F8F0F0F8F8",
"u 	c #888888889090",
"i 	c #A8A8A8A8B8B8",
"p 	c #707070707878",
"a 	c #C8C8C8C8D0D0",
"s 	c #686868686868",
"d 	c #888888889898",
"f 	c #C8C8C8C8C8C8",
"g 	c #484848485050",
"h 	c #F0F0E8E8F0F0",
"j 	c #D0D0D0D0D0D0",
"k 	c #808088889090",
"l 	c #C0C0C0C0C8C8",
"z 	c #282830303030",
"x 	c #989898989898",
"c 	c #C0C0C8C8C8C8",
"v 	c #383838383838",
"b 	c #585858586060",
"n 	c #E8E8E8E8F8F8",
"m 	c #D0D0D0D0E0E0",
"M 	c #D0D0C8C8D8D8",
"N 	c #E0E0D8D8E8E8",
"B 	c #B8B8B8B8B8B8",
"V 	c #202020202828",
"C 	c #808080808080",
"Z 	c #585858585858",
"A 	c #282828282828",
"S 	c #282828283030",
"D 	c #484848484848",
"F 	c #606068687070",
"G 	c #888890909898",
"H 	c #98989898A8A8",
"J 	c #686868687070",
"K 	c #505050505050",
"L 	c #606060606868",
"P 	c #D8D8D0D0E0E0",
"I 	c #9898B0B08080",
"U 	c #9090B0B04848",
"Y 	c #8888B8B82828",
"T 	c #8080B0B02020",
"R 	c #8080A8A83838",
"E 	c #9090A8A87070",
"W 	c #B0B0B0B0A8A8",
"Q 	c #505058585858",
"! 	c #505050505858",
"~ 	c #909090909090",
"^ 	c #707070708080",
"/ 	c #404040404040",
"( 	c #A8A8A8A8A0A0",
") 	c #9090B8B84040",
"_ 	c #9090D0D00808",
"` 	c #8888D0D00000",
"' 	c #8080C8C80000",
"] 	c #7878C0C00000",
"[ 	c #7878A8A81818",
"{ 	c #9898A8A89898",
"} 	c #787878788080",
"| 	c #808080808888",
" .	c #686868687878",
"..	c #9898A0A0A8A8",
"X.	c #E8E8E8E8F0F0",
"o.	c #101010101818",
"O.	c #E0E0D8D8E0E0",
"+.	c #A0A0A8A8A8A8",
"@.	c #8888B8B82020",
"#.	c #8888C0C02020",
"$.	c #A0A0C8C85050",
"%.	c #9090C8C83030",
"&.	c #7878B0B01010",
"*.	c #9898A0A09898",
"=.	c #B0B0B8B8B8B8",
"-.	c #B8B8C0C0C8C8",
";.	c #A8A8B0B0B8B8",
":.	c #B8B8C0C0C0C0",
">.	c #B0B0A8A8C0C0",
",.	c #8080A8A84848",
"<.	c #7878B8B80808",
"1.	c #D0D0E0E0C0C0",
"2.	c #B0B0E0E05050",
"3.	c #8080A0A03838",
"4.	c #90909090A0A0",
"5.	c #9898A0A0A0A0",
"6.	c #B0B0B8B8C0C0",
"7.	c #303030303030",
"8.	c #E0E0E0E0D8D8",
"9.	c #D8D8E0E0E0E0",
"0.	c #A0A0A8A8B0B0",
"q.	c #8080C0C00808",
"w.	c #8888C8C80808",
"e.	c #B0B0E0E05858",
"r.	c #A8A8D0D05050",
"t.	c #E0E0E8E8D0D0",
"y.	c #C8C8E8E88080",
"u.	c #7878B8B80000",
"i.	c #888890908888",
"p.	c #787878788888",
"a.	c #707078788080",
"s.	c #383838384040",
"d.	c #383840404040",
"f.	c #A0A0A0A0B0B0",
"g.	c #808090906868",
"h.	c #8888C8C80000",
"j.	c #A0A0C0C05858",
"k.	c #E0E0E8E8C0C0",
"l.	c #8080C0C00000",
"z.	c #98989090A8A8",
"x.	c #585860606060",
"c.	c #606060606060",
"v.	c #606060605858",
"b.	c #808080809090",
"n.	c #E8E8E8E8E0E0",
"m.	c #707088885858",
"M.	c #E0E0E8E8D8D8",
"N.	c #F8F8F8F8F0F0",
"B.	c #C0C0D8D89090",
"V.	c #787890905858",
"C.	c #606060607070",
"Z.	c #585860606868",
"A.	c #585858586868",
"S.	c #686878785050",
"D.	c #9090D0D01818",
"F.	c #B0B0D0D07070",
"G.	c #8888C8C81010",
"H.	c #707080805858",
"J.	c #707068687878",
"K.	c #90909898A0A0",
"L.	c #505058586060",
"P.	c #505050506060",
"I.	c #7878C8C80000",
"U.	c #7070B8B80000",
"Y.	c #9898C0C05050",
"T.	c #E8E8F8F8D8D8",
"R.	c #707078787070",
"E.	c #808078787878",
"W.	c #686890902828",
"Q.	c #8080D0D00000",
"!.	c #9090C0C03030",
"~.	c #C0C0D8D8A0A0",
"^.	c #A8A8C8C86060",
"/.	c #A8A8C8C87070",
"(.	c #E8E8F0F0E8E8",
").	c #C0C0E8E87070",
"_.	c #707098982828",
"`.	c #484850505858",
"'.	c #404048484848",
"].	c #686870707878",
"[.	c #505058585050",
"{.	c #7070A8A80808",
"}.	c #A0A0D0D05050",
"|.	c #F0F0F8F8E8E8",
" X	c #F0F0F8F8D0D0",
".X	c #C8C8E8E87878",
"XX	c #7878B0B00808",
"oX	c #686870706868",
"OX	c #484840405050",
"+X	c #484848485858",
"@X	c #484850504040",
"#X	c #6868A0A01010",
"$X	c #9898D8D82020",
"%X	c #9898D8D81010",
"&X	c #7070A0A01818",
"*X	c #686870706060",
"=X	c #404038384848",
"-X	c #F0F0F0F0E8E8",
";X	c #707070707070",
":X	c #404040405050",
">X	c #505070702828",
",X	c #686898981010",
"<X	c #606080803838",
"1X	c #787880808888",
"2X	c #404048485050",
"3X	c #181818182020",
"4X	c #707070706868",
"5X	c #303028283838",
"6X	c #303038383838",
"7X	c #686860606868",
"8X	c #383830303030",
"9X	c #383840404848",
"0X	c #202028282828",
"qX	c #181820202020",
"wX	c #404040403838",
"eX	c #101010101010",
"rX	c #000000000808",
"tX	c #F8F8E8E8D8D8",
"yX	c #F0F0E0E0D0D0",
"uX	c #F8F8E0E0D0D0",
"iX	c #F8F8E8E8D0D0",
"pX	c #F8F8F0F0F0F0",
"aX	c #D8D8D8D8D0D0",
"sX	c #E8E8E0E0E0E0",
"dX	c #E0E0D8D8D0D0",
"fX	c #E0E0D8D8D8D8",
"gX	c #E8E8F0F0F0F0",
"                                                                                                                                                                                                        ",
"  . . . . . . . . . . . . . . . . . . . . . . . . . . . . . . . . . . . . . . . . . . . . . . . . . . . . . . . . . . . . . . . . . . . . . . . . . . . . . . . . . . . . . . . . . . . . . . . . . .   ",
"  . . . . . . . . . . . . . . . . . . . . . . . . . . . . . . . . . . . . . . . . . . . . . . . . . . . . . . . . . . . . . . . . . . . . . . . . X o . . . . . . . . . . . . . . . . . . . X O . . .   ",
"  . . . . . . . . . . . . . . . . . . . . . . . . . . . . . . . . . . . . . . . . . . . . . . . . . . . . . . . . . . . . . . . . . . . . . . . + @ # @ $ . . . . . . . . . . . . . . . X . % & . . .   ",
"  . . . . . . . . . . . . . . . . . . . . . . . . . . . . . . . . . . . . . . . . . . . . . . . . . . . . . . . . . . . . . . . . . . . . . . . * = - ; : O . . . . . . . . . . . . . > O , < 1 . . .   ",
"  . . . . . . . . . . . . . . . . . . . . . . . . . . . . . . . . . . . . . . . . . . . . . . . . . . . . . . . . . . . . . . O 2 X . . . . . . . 3 4 , 5 % 6 . . . . . . . . . . . 7 X 8 9 1 0 . . .   ",
"  . . . . . . . . . . . . . O X q w w 7 7 o e r t . . . . . . . . . . . . . . . . . . . . . . . . . . . . . . . . . . . . . O e , 5 . . y X 7 e . . * = u i : O . . . . . . . . . o X p < 3 . . . . .   ",
"  . . . . . . . . . . . . w w w w > X > > w w e @ : X . . . . . . . . O > . . . . . . . . . . . . . . . . . . . . . . . . . a > p s . O o > w d + . . f g : 5 , h . . . . . . . e > % < + . . . . . .   ",
"  . . . . . . . . . . X o w q 7 j # @ # r o e e o : k y . . . . . . w o % - . . . . . . . . . . . . . . . . . . . . . . . j o l z x . : c w : v b . . . + = 5 , @ n m a f M N e o B V C . . . . . . .   ",
"  . . . . . . . . O t 7 > t % Z v A S S D 5 e r j a F B . . . . O e o > G b . . . . . O l : O . . . . . . . . . . . . . . H t & D X . , J # 4 K * . . . O u L P # I U Y T R E # a = b w . . . . . . .   ",
"  . . . . . . O 7 e 7 o : g < K 1 W * * 8 Q # a a a ! ~ . . . . l a e a @ L e . . . . j , ^ : . . . . . . . . . . . . . w 5 r L s . . X Z S / w . w B - 3 3 5 ( ) _ ` ' ' ' ] [ { , x 5 - B 7 . . . .   ",
"  . . . . o c j o t l J 9 D + O . . . . . u @ l a : A + . . . X 5 a l l a } | . . . . w  ...J w . . . . . . . . . . . X.l o } o.~ . . . o 8 3 . @ 1 + o O O.+.@.` ' #.$.$.$.$.%.&.*.; O w * 3 2 X.. .   ",
"  . . . > =.e a l @ D < 1 X . . . . . . o # l l -.= K X . . . * ;.l * :.l | s . . . . . p % , u X . . . . . . . . . . @ a @ S 8 w . . . . . . e u f O e B >.,.` ' <.1.. . . . 2.' 3.4.5 e O O 5 5.. .   ",
"  . . . 5 % # @ 6.g v B . . . . . . O c a a # 6.L A f . . . . : @ # 5 5 # H b w . . . . % J # 4.} X . . . . . . . . r 5 l p 7.8.. . . 9.0.5 . w G % 5 | , ~ q.` ' w.e.r.t.. y.` ` u.i.p., @ 5 a.3 . .   ",
"  . . . - a.@ 6.u A B . . . . . . w # a :.6.% s.9 x . . . . o : # u V d.f.@ Q B . . . . o ! H # F , . . . . . . . . % 5 5 S C . . . w @ 6.! f X.} J J } H g.' h.h.h.] j.. k.q.' ` l.g.z.p.x.c.p l . .   ",
"  . . . * | i @ b Z . . . . . o l l a ; : L < / + . . . . . ;.5 f.4 v.s b @  .| . . . . . 8 F ; | L . . . . . . . O b.i J 7.o . . w H a ;.g - @ } n.j 3 p.m.' h.h.' #.M.. N.B.' h.' V.C.C + w @ | X .   ",
"  . . . @ } 5 f.= ~ . . . 7 # l l 6., Z.A A 1 w . . . . . X 4.@ J A o X ! b.4.b w . . . . j g , : A.+ . . . . . . a % : S 1 . . . f p.5 : = + +  .@ X . i S.' h.h.' w.D.F.. . G.' ' H.J.X . e d L w .   ",
"  . . . @ a.: K.v @ . . * =.# 5 u ! 9 A s f . . . . . . . @ : : v s . . % ! : L , . . . . . 1 g ..d L.o . . . . O ..@ F 4 w . . . # a.: , 7.* O 8 P.} : : s u.` ' ] I.U.Y.. T.w.` u.R.| @ , L D - . .   ",
"  . . . + ^ H G v * . 5 @ @ K.Z.< 7.C o . . . . . . . . > , 5 p A * . . e L K.d L # O O X.> l J , H P.~ . . . . # f.H 7.E.. . . . # L H | s.o . X ~ Q g L.A.W.Q.!.~.^./.(.. ).' Q._. .b `.'.c.+ . . .   ",
"  . . . : a.% | 4 j a | .., G v 8 w . . . . . . . . $ X : % % C.c.l l l @ @ 4.4.k | f.;.@ @ # # % K.].b . . . 7 , 0.J A j . . . . o Z.4.^ / w . . . o - 8 ! [.{.}.|.. .  X.X_ Q.XXoXOXc.1 B X . . . .   ",
"  . . . , ^ , ^ / X B b d d d p | # =.=.# @ @ 5 5 @ 5 5 @ % d d ..i 0.i i 4.d G d 4...% b.p ! 4 s.p.k '.a . . : , G s.c.. . . . . X L d b K O . . . . . . j +X@X#Xw.$X$X%X` ' &X*X=X~ -X. . . . . . .   ",
"  . . . |  .u p./ j o = p.u b.k K.f.f.: 5 i 5 0.5 ;.: K.d b.p. .L b ! = s.4 4 ! b.k ^ S 9 < v s ! ! d ! 1 . > | 4.p 9 - . . . . . X L b.= ;X. . . . . . . w } :Xd.>X,XXXXX&X<XZ s.v f . . . . . . . .   ",
"  . . . u L b.p.v + . s 4 a.b.b.1Xp.p.p.^ F F C.Z.:XZ.1Xp.2X3X< 7.v / D Z s 4Xs.+Xk b s.+ f w . w = ^ p K o : , | 7.D X . . . . . w A.p.4 ~ . . . . . . O , : A.9 5X4 v v s.4 V ! J L O . . . . . . .   ",
"  . . . ~ C.p.a.4 + . X c.< 6Xs.4 A V < 3X< < < A 7.L.1X= < ~ * o w X O . . . j v C. .g w . . . . 8 = p.b | : d ! A f . . . . . . w b ^ 7.+ . . . . . . - u a.3Xc.B 1 7Xc.;X- ~ s.a.g ~ . . . . . . .   ",
"  . . . C Z.^ p 4 - . . O ~ K K Z ;XC ~ 3 B B * f u d C.o.~ . . . . . . . . . . ~ 7.p g 1 . . . . j 4 C.} % u  .< 8 . . . . . . . o L. .z * . . . . . @ u G s.8Xo . . . O . . O g ! p = + . . . . . .   ",
"  . . . C ! ].J A - . . . . . . . . . . . . . . f } p.A D X . . . . . . . . . . O K = J = B . . . . 8 9X .F  .s.7.o . . . . . . . o ! C.S * . . . . X p | L 3Xx . . . . . . . . B 4  .b = X . . . . .   ",
"  . . . ~ = J g < f . . . . . . . . . . . . . . p ^ g 0X* . . . . . . . . . . . . * S A.:XD O . . . o v b J L qXx . . . . . . . . j `.L S * . . . . % ^  .4 wXw . . . . . . . . . Z = J s.1 . . . . .   ",
"  . . . + s.L < L O . . . . . . . . . . . . . f b J S c.. . . . . . . . . . . . . . 8 4 4 K O . . . . ;Xs.F :XA o . . . . . . . . j = A.7.- . . . X L  .! 9 3 . . . . . . . . . . + S b ! s.w . . . .   ",
"  . . . w 4 S 9 B . . . . . . . . . . . . . . x 2Xg eXx . . . . . . . . . . . . . . w 7.rX;X. . . . . j V S eXc.. . . . . . . . . X 6Xs.< ~ . . . @ g Z.z / X . . . . . . . . . . . Z s.A.S 3 . . . .   ",
"  . . . . 3 < s O . . . . . . . . . . . . . . 3 9 eXZ X . . . . . . . . . . . . . . . j ;XB . . . . . . x / Z j . . . . . . . . . . ~ 9 A B . . . - < s.eXx . . . . . . . . . . . . + < 4 eXC . . . .   ",
"  . . . . . o X . . . . . . . . . . . . . . . X D c.o . . . . . . . . . . . . . . . . . . . . . . . . . . O O . . . . . . . . . . . . f f . . . . X Z eXD X . . . . . . . . . . . . . Z 9 D f . . . .   ",
"  . . . . . . . . . . . . . . . . . . . . . . . -XO . . . . . . . . . . . . . . . . . . . . . . . . . . . . . . . . . . . . . . . . . . . . . . . . O * o . . . . . . . . . . . . . . X f X . . . . .   ",
"  . . . . . . . . . . . . . . . . . . . . . . . . . . . . . . . . . . . . . . . . . . . . . . . . . . . . . . . . . . . . . . . . . . . . . . . . . . . . . . . . . . . . . . . . . . . . . . . . . .   ",
"  . . . . . tXyXyXyXyXyXyXyXyXyXyXyXyXyXyXyXyXyXyXyXyXyXyXyXyXyXyXuXyXyXyXyXyXyXyXyXuXuXyXyXyXyXyXyXyXyXyXyXyXuXyXyXyXyXyXyXyXyXyXtXiXyXyXyXyXyXuXuXyXyXyXtXuXyXyXyXyXyXyXyXyXuXtXyXyXyXtX. . . . . .   ",
"  . . . . . N.N.N.N.N.N.N.pXN.N.. N.N.N.pXN.N.pXpX. N.pXN.N.pXN.N.pXN.N.N.N.N.pXN.N.pXpXN.N.pXN.N.N.N.N.N.pXpXpXN.N.N.N.pXpXN.N.N.aXsXN.N.N.N.N.N.pXN.N.N.dX-XN.N.pXN.N.N.N.N.n.fXN.N.N.. . . . . . .   ",
"  . . . . . . . . . . . . . . . j O . . . . . . . o X . . . . . . :.q . . . . . . . j t . . . . . . . . . . X.B . . . . . . . X . s o O O . gXO - x . O O 1 O X O . . O . X O :.x . O O f X . . . . .   ",
"  . . . . . . j f f j x f j x w C j f ~ w + x O . ~ B o x f o x w 3 C j f 1 * X ~ * * j j ~ j j 1 B f o * . X 8 3 * o * . . C / 3 ;Xf Z Z B K - D 8 - / B C + K * . Z 1 - Z ;X~ - s / 1 ~ * . . . . .   ",
"  . . . . . . w C B 3 x + 3 w . 3 w - * 3 3 o . . + w x x + 3 o . - * - + f - - f 3 B j 3 f - - * - o C f . X - + + ~ - . o 7.C + 8 C D 3 c.- . c.w ;Xx f ;Xc.f . X / o K C ;X;X+ K 8 ~ w O . . . . .   ",
"  . . . . . . . x o f ~ j f 3 X B j * ~ j B O . . f f f ~ j f x w * o * * w * j x B o B * ~ f j ~ x . 8 O . O ~ x O 8 f . w K ~ * 3 - Z f x c.O s + 1 O + - 1 s . j ~ . Z Z 3 ~ * x 3 * . . . . . . .   ",
"  . . . . . . . . . . X . . X . . O . X . . . . . . O . X . . X . . . . . . . . X . . O . X . o C B o + . . . O O w x . . . O X . . . O O . X . . O . . . . . X . . . . . . . . . . . . . . . . . . .   ",
"  . . . . . . . . . . . . . . . . . . . . . . . . . . . . . . . . . . . . . . . . . . . . . . O w . O . . . . . . O O . . . . . . . . . . . . . . . . . . . . . . . . . . . . . . . . . . . . . . . .   ",
"                                                                                                                                                                                                        "};
