<?xml version="1.0" encoding="utf-8"?>
<!-- Generator: Adobe Illustrator 21.0.0, SVG Export Plug-In . SVG Version: 6.00 Build 0)  -->
<svg version="1.1" baseProfile="basic" xmlns="http://www.w3.org/2000/svg" xmlns:xlink="http://www.w3.org/1999/xlink" x="0px"
	 y="0px" viewBox="0 0 20 19" xml:space="preserve">
<g id="Layer_2" display="none">
	<rect x="-269" y="-52" display="inline" fill="#686868" width="583" height="202"/>
</g>
<g id="UI">
</g>
<g id="Layer_1">
</g>
<g id="Layer_3">
	<path fill="none" stroke="#BDBDBD" stroke-miterlimit="10" d="M13.1,17c0.8-0.6,1.4-1.5,1.4-2.5c0-1.9-2-3.5-4.5-3.5
		s-4.5,0.9-4.5,2c0,0.4,0.2,0.7,0.6,1c0.8,0.6,2.2,1,3.9,1c1.7,0,3.3-0.8,4-1.9c0.3-0.5,0.5-1,0.5-1.6c0-1.9-2-3.5-4.5-3.5
		s-4.5,0.9-4.5,2s2,2,4.5,2s4.5-1.6,4.5-3.5S12.5,5,10,5S5.5,5.9,5.5,7s2,2,4.5,2s4.5-1.6,4.5-3.5S12.5,2,10,2S5.5,2.9,5.5,4
		c0,0.4,0.2,0.7,0.6,1"/>
	<circle fill="#F15A5B" cx="13.2" cy="17" r="1"/>
	<circle fill="#F15A5B" cx="6.5" cy="5.5" r="1"/>
</g>
</svg>
