<?xml version="1.0" encoding="utf-8"?>
<!-- Generator: Adobe Illustrator 21.0.0, SVG Export Plug-In . SVG Version: 6.00 Build 0)  -->
<svg version="1.1" baseProfile="basic" xmlns="http://www.w3.org/2000/svg" xmlns:xlink="http://www.w3.org/1999/xlink" x="0px"
	 y="0px" viewBox="0 0 20 20" xml:space="preserve">
<g id="Layer_2" display="none">
	<rect x="-299" y="-112" display="inline" fill="#686868" width="583" height="202"/>
</g>
<g id="UI">
</g>
<g id="Layer_1">
	<g>
		<polygon fill="#BDBDBD" points="13,1 13,7 2,13 2,7 3,5 6,6 9,3 11,3 		"/>
		<polyline fill="none" stroke="#F15A5B" stroke-miterlimit="10" points="2,7 3,5 6,6 9,3 11,3 13,1 		"/>
		<polygon fill="#BDBDBD" points="16,4 16,10 5,16 5,10 6,8 8,7 12,8 14,6 		"/>
		<polyline fill="none" stroke="#F15A5B" stroke-miterlimit="10" points="5,10 6,8 8,7 12,8 14,6 16,4 		"/>
		<polygon fill="#BDBDBD" points="19,7 19,13 8,19 8,13 9,11 12,13 14,8 17,9 		"/>
		<polyline fill="none" stroke="#F15A5B" stroke-miterlimit="10" points="8,13 9,11 12,13 14,8 17,9 19,7 		"/>
	</g>
</g>
<g id="Layer_3">
</g>
</svg>
