<?xml version="1.0" encoding="utf-8"?>
<!-- Generator: Adobe Illustrator 21.0.0, SVG Export Plug-In . SVG Version: 6.00 Build 0)  -->
<svg version="1.1" baseProfile="basic" xmlns="http://www.w3.org/2000/svg" xmlns:xlink="http://www.w3.org/1999/xlink" x="0px"
	 y="0px" viewBox="0 0 20 20" xml:space="preserve">
<g id="Layer_2" display="none">
	<rect x="-449" y="-52" display="inline" fill="#686868" width="583" height="202"/>
</g>
<g id="UI">
</g>
<g id="Layer_1">
</g>
<g id="Layer_3">
	<rect x="9" y="2" fill="#BDBDBD" width="1" height="2"/>
	<rect x="9" y="5" fill="#BDBDBD" width="1" height="2"/>
	<rect x="9" y="8" fill="#BDBDBD" width="1" height="3"/>
	<rect x="9" y="12" fill="#BDBDBD" width="1" height="2"/>
	<rect x="9" y="15" fill="#BDBDBD" width="1" height="2"/>
	<rect x="15.5" y="8.5" transform="matrix(4.365556e-11 1 -1 4.365556e-11 25.5 -6.5)" fill="#BDBDBD" width="1" height="2"/>
	<rect x="12.5" y="8.5" transform="matrix(4.365556e-11 1 -1 4.365556e-11 22.5 -3.5)" fill="#BDBDBD" width="1" height="2"/>
	<rect x="9" y="8" transform="matrix(6.548344e-11 1 -1 6.548344e-11 19 2.245588e-08)" fill="#BDBDBD" width="1" height="3"/>
	<rect x="5.5" y="8.5" transform="matrix(4.365556e-11 1 -1 4.365556e-11 15.5 3.5)" fill="#BDBDBD" width="1" height="2"/>
	<rect x="2.5" y="8.5" transform="matrix(4.365556e-11 1 -1 4.365556e-11 12.5 6.5)" fill="#BDBDBD" width="1" height="2"/>
	<path fill="none" stroke="#F15A5B" stroke-miterlimit="10" d="M2,6c2,0,1,8,3,8s1-8,3-8s1,8,3,8s1-8,3-8s1,8,3,8"/>
</g>
</svg>
