<?xml version="1.0" encoding="utf-8"?>
<!-- Generator: Adobe Illustrator 19.2.0, SVG Export Plug-In . SVG Version: 6.00 Build 0)  -->
<svg version="1.1" baseProfile="tiny" xmlns="http://www.w3.org/2000/svg" xmlns:xlink="http://www.w3.org/1999/xlink" x="0px"
	 y="0px" viewBox="0 0 64 64" xml:space="preserve">
<g id="BG" display="none">
	<polygon display="inline" fill="#444444" points="-120.5,-299.7 -120.5,-90.8 -120.5,156.7 -120.5,365.6 420.5,365.6 420.5,156.7 
		420.5,-90.8 420.5,-299.7 	"/>
</g>
<g id="Colour">
</g>
<g id="Time">
</g>
<g id="Breakout">
</g>
<g id="Repro">
</g>
<g id="Python">
</g>
<g id="PaintFX">
</g>
<g id="Explode">
</g>
<g id="SoUP">
</g>
<g id="Maths">
</g>
<g id="Deformer">
</g>
<g id="Spring">
</g>
<g id="Merge">
</g>
<g id="Delay">
</g>
<g id="Symmetry">
</g>
<g id="Audio">
</g>
<g id="Trig">
</g>
<g id="Transform">
</g>
<g id="Random">
</g>
<g id="Initial_State">
	<g>
		<circle fill="#F15A5B" stroke="#3A3A3A" stroke-width="0.75" stroke-miterlimit="10" cx="30.9" cy="39.5" r="11.6"/>
		<g>
			<polyline fill="none" stroke="#BDBDBD" stroke-width="0.75" stroke-miterlimit="10" points="34.7,42.8 34.7,43.3 34.2,43.3 			
				"/>
			
				<line fill="none" stroke="#BDBDBD" stroke-width="0.75" stroke-miterlimit="10" stroke-dasharray="0.9242,0.9242" x1="33.3" y1="43.3" x2="28.2" y2="43.3"/>
			<polyline fill="none" stroke="#BDBDBD" stroke-width="0.75" stroke-miterlimit="10" points="27.7,43.3 27.2,43.3 27.2,42.8 			
				"/>
			
				<line fill="none" stroke="#BDBDBD" stroke-width="0.75" stroke-miterlimit="10" stroke-dasharray="0.9242,0.9242" x1="27.2" y1="41.8" x2="27.2" y2="36.7"/>
			<polyline fill="none" stroke="#BDBDBD" stroke-width="0.75" stroke-miterlimit="10" points="27.2,36.3 27.2,35.8 27.7,35.8 			
				"/>
			
				<line fill="none" stroke="#BDBDBD" stroke-width="0.75" stroke-miterlimit="10" stroke-dasharray="0.9242,0.9242" x1="28.7" y1="35.8" x2="33.8" y2="35.8"/>
			<polyline fill="none" stroke="#BDBDBD" stroke-width="0.75" stroke-miterlimit="10" points="34.2,35.8 34.7,35.8 34.7,36.3 			
				"/>
			
				<line fill="none" stroke="#BDBDBD" stroke-width="0.75" stroke-miterlimit="10" stroke-dasharray="0.9242,0.9242" x1="34.7" y1="37.2" x2="34.7" y2="42.3"/>
		</g>
		<polyline fill="none" stroke="#3A3A3A" stroke-width="0.75" stroke-miterlimit="10" points="56.6,54.3 31,39.5 5.3,54.3 		"/>
		<line fill="#BDBDBD" stroke="#3A3A3A" stroke-width="0.75" stroke-miterlimit="10" x1="31" y1="9.8" x2="31" y2="39.4"/>
		<path fill="#BDBDBD" stroke="#3A3A3A" stroke-width="0.75" stroke-miterlimit="10" d="M34.7,17.2c0,1-1.7,1.9-3.7,1.9
			s-3.7-0.8-3.7-1.9L31,9L34.7,17.2z"/>
		<path fill="#BDBDBD" stroke="#3A3A3A" stroke-width="0.75" stroke-miterlimit="10" d="M10,47.4c0.9-0.5,2.4,0.5,3.5,2.3
			s1.1,3.7,0.2,4.2l-9,0.8L10,47.4z"/>
		<path fill="#BDBDBD" stroke="#3A3A3A" stroke-width="0.75" stroke-miterlimit="10" d="M52.6,47.4c-0.9-0.5-2.4,0.5-3.5,2.3
			c-1,1.8-1.1,3.7-0.2,4.2l9,0.8L52.6,47.4z"/>
	</g>
</g>
<g id="Trails">
</g>
<g id="Noise">
</g>
<g id="Influence">
</g>
<g id="Replicator">
</g>
<g id="Mute">
</g>
<g id="Orient">
</g>
<g id="Flight">
</g>
<g id="ID">
</g>
<g id="Falloff">
</g>
<g id="Offset">
</g>
<g id="Waiter">
</g>
<g id="Curve">
</g>
<g id="Inherit">
</g>
<g id="Points">
</g>
<g id="Visibilty">
</g>
<g id="Distribute">
</g>
<g id="ReproUI">
</g>
</svg>
