<?xml version="1.0" encoding="utf-8"?>
<!-- Generator: Adobe Illustrator 21.0.0, SVG Export Plug-In . SVG Version: 6.00 Build 0)  -->
<svg version="1.1" baseProfile="basic" xmlns="http://www.w3.org/2000/svg" xmlns:xlink="http://www.w3.org/1999/xlink" x="0px"
	 y="0px" viewBox="0 0 20 20" xml:space="preserve">
<g id="Layer_2" display="none">
	<rect x="-479" y="-172" display="inline" fill="#686868" width="583" height="202"/>
</g>
<g id="UI">
</g>
<g id="Layer_1">
</g>
<g id="Layer_3">
	<circle fill="#F15A5B" cx="7" cy="11" r="1"/>
	<circle fill="#F15A5B" cx="9" cy="8" r="1"/>
	<circle fill="#F15A5B" cx="7" cy="5" r="1"/>
	<circle fill="#F15A5B" cx="4" cy="14" r="1"/>
	<polygon fill="#C9C9C9" points="10,14.1 10,13.4 9.3,13.4 9.3,12.7 8.6,12.7 8.6,13.4 7.9,13.4 7.9,14.1 7.2,14.1 7.2,14.9 
		6.5,14.9 5.7,14.9 5.7,15.6 5,15.6 4.3,15.6 4.3,16.3 5,16.3 5,17 5.7,17 6.5,17 7.2,17 7.9,17 8.6,17 9.3,17 9.3,16.3 10,16.3 
		10,15.6 10.8,15.6 10.8,14.9 10.8,14.1 	"/>
	<polygon fill="#BDBDBD" points="18.4,5.6 17.4,5.6 11.5,11.5 11,11 10,12 12,14 13,13 12.5,12.5 18.4,6.6 	"/>
</g>
</svg>
