<?xml version="1.0" encoding="utf-8"?>
<!-- Generator: Adobe Illustrator 21.0.0, SVG Export Plug-In . SVG Version: 6.00 Build 0)  -->
<svg version="1.1" baseProfile="basic" xmlns="http://www.w3.org/2000/svg" xmlns:xlink="http://www.w3.org/1999/xlink" x="0px"
	 y="0px" viewBox="0 0 20 20" xml:space="preserve">
<g id="Layer_2" display="none">
	<rect x="-329" y="-112" display="inline" fill="#686868" width="583" height="202"/>
</g>
<g id="UI">
</g>
<g id="Layer_1">
	<g>
		<polygon fill="#F15A5B" points="14,14 16,15 16,17 14,18 12,17 12,15 		"/>
		<polygon fill="#BDBDBD" points="14,10 16,11 16,13 14,14 12,13 12,11 		"/>
		<polygon fill="#BDBDBD" points="14,6 16,7 16,9 14,10 12,9 12,7 		"/>
		<polygon fill="#BDBDBD" points="10,12 12,13 12,15 10,16 8,15 8,13 		"/>
		<polygon fill="#BDBDBD" points="10,8 12,9 12,11 10,12 8,11 8,9 		"/>
		<polygon fill="#BDBDBD" points="10,4 12,5 12,7 10,8 8,7 8,5 		"/>
		<polygon fill="#BDBDBD" points="6,10 8,11 8,13 6,14 4,13 4,11 		"/>
		<polygon fill="#BDBDBD" points="6,6 8,7 8,9 6,10 4,9 4,7 		"/>
		<polygon fill="#BDBDBD" points="6,2 8,3 8,5 6,6 4,5 4,3 		"/>
		<polygon fill="#FFFFFF" points="8,13 10,14 10,16 8,15 		"/>
		<polygon fill="#FFFFFF" points="4,11 6,12 6,14 4,13 		"/>
		<polygon fill="#FFFFFF" points="4,7 6,8 6,10 4,9 		"/>
		<polygon fill="#FFFFFF" points="8,9 10,10 10,12 8,11 		"/>
		<polygon fill="#FFFFFF" points="12,11 14,12 14,14 12,13 		"/>
		<polygon fill="#FFFFFF" points="12,7 14,8 14,10 12,9 		"/>
		<polygon fill="#FFFFFF" points="8,5 10,6 10,8 8,7 		"/>
		<polygon fill="#FFFFFF" points="4,3 6,4 6,6 4,5 		"/>
	</g>
</g>
<g id="Layer_3">
</g>
</svg>
