<?xml version="1.0" encoding="utf-8"?>
<!-- Generator: Adobe Illustrator 21.0.0, SVG Export Plug-In . SVG Version: 6.00 Build 0)  -->
<svg version="1.1" baseProfile="basic" xmlns="http://www.w3.org/2000/svg" xmlns:xlink="http://www.w3.org/1999/xlink" x="0px"
	 y="0px" viewBox="0 0 20 20" xml:space="preserve">
<g id="Layer_2" display="none">
	<rect x="-239" y="-52" display="inline" fill="#686868" width="583" height="202"/>
</g>
<g id="UI">
</g>
<g id="Layer_1">
</g>
<g id="Layer_3">
	<rect x="9" y="2" fill="#BDBDBD" width="2" height="2"/>
	<rect x="2" y="9" fill="#BDBDBD" width="2" height="2"/>
	<rect x="9" y="16" fill="#BDBDBD" width="2" height="2"/>
	<rect x="16" y="9" fill="#BDBDBD" width="2" height="2"/>
	<path display="none" fill="#BDBDBD" d="M11.4,8.6C11.8,8.9,12,9.4,12,10c0,1.1-0.9,2-2,2s-2-0.9-2-2c0-0.6,0.2-1.1,0.6-1.4L6.5,6.5
		C5.6,7.4,5,8.6,5,10c0,2.8,2.2,5,5,5s5-2.2,5-5c0-1.4-0.6-2.6-1.5-3.5L11.4,8.6z"/>
	<circle fill="#F15A5B" cx="10" cy="10" r="1"/>
	<path fill="#BDBDBD" d="M12.1,7.9C12.7,8.4,13,9.2,13,10c0,1.7-1.3,3-3,3s-3-1.3-3-3c0-0.8,0.3-1.6,0.9-2.1L6.5,6.5
		C5.6,7.4,5,8.6,5,10c0,2.8,2.2,5,5,5s5-2.2,5-5c0-1.4-0.6-2.6-1.5-3.5L12.1,7.9z"/>
	<line fill="none" stroke="#F15A5B" stroke-linecap="round" stroke-miterlimit="10" x1="10" y1="10" x2="6" y2="6"/>
</g>
</svg>
