<?xml version="1.0" encoding="utf-8"?>
<!-- Generator: Adobe Illustrator 21.0.0, SVG Export Plug-In . SVG Version: 6.00 Build 0)  -->
<svg version="1.1" baseProfile="basic" xmlns="http://www.w3.org/2000/svg" xmlns:xlink="http://www.w3.org/1999/xlink" x="0px"
	 y="0px" viewBox="0 0 20 20" xml:space="preserve">
<g id="Layer_2" display="none">
	<rect x="-269" y="-22" display="inline" fill="#686868" width="583" height="202"/>
</g>
<g id="UI">
</g>
<g id="Layer_1">
</g>
<g id="Layer_3">
	<path fill="none" stroke="#F15A5B" stroke-width="2" stroke-miterlimit="10" d="M2.2,13h4.2c0.5,0,1-0.3,1.2-0.7l3.1-4.7
		C11,7.3,11.5,7,12,7h3.2"/>
	<polygon fill="#F15A5B" points="14,4 14,10 18,7 	"/>
	<polygon fill="#BDBDBD" points="14,10 14,16 18,13 	"/>
	<g>
		<path fill="#BDBDBD" d="M6.8,8.2l0.6,0.9l1.2-1.8L8.5,7.1C8,6.4,7.2,6,6.4,6H2.2v2h4.2C6.6,8,6.7,8.1,6.8,8.2z"/>
		<path fill="#BDBDBD" d="M11.6,11.8L11,10.9l-1.2,1.8l0.1,0.2c0.5,0.7,1.2,1.1,2.1,1.1h3.2v-2H12C11.8,12,11.7,11.9,11.6,11.8z"/>
	</g>
</g>
</svg>
