<?xml version="1.0" encoding="utf-8"?>
<!-- Generator: Adobe Illustrator 21.0.0, SVG Export Plug-In . SVG Version: 6.00 Build 0)  -->
<svg version="1.1" baseProfile="basic" xmlns="http://www.w3.org/2000/svg" xmlns:xlink="http://www.w3.org/1999/xlink" x="0px"
	 y="0px" viewBox="0 0 20 20" xml:space="preserve">
<g id="Layer_2" display="none">
	<rect x="-479" y="-52" display="inline" fill="#686868" width="583" height="202"/>
</g>
<g id="UI">
</g>
<g id="Layer_1">
</g>
<g id="Layer_3">
	<polygon fill="#BDBDBD" points="4,17 2,16 2,14 4,13 6,14 6,16 	"/>
	<polygon fill="#BDBDBD" points="8,15 6,14 6,9 8,8 10,9 10,14 	"/>
	<polygon fill="#BDBDBD" points="12,13 10,12 10,5 12,4 14,5 14,12 	"/>
	<polygon fill="#BDBDBD" points="16,11 14,10 14,6 16,5 18,6 18,10 	"/>
	<polygon fill="#FFFFFF" points="6,11 8,12 10,11 10,10 8,9 6,10 	"/>
	<polygon fill="#FFFFFF" points="10,9 12,10 14,9 14,8 12,7 10,8 	"/>
	<polygon fill="#FFFFFF" points="14,7 16,8 18,7 18,6 16,5 14,6 	"/>
	<polygon fill="#F15A5B" points="6,9 8,8 10,9 10,10 8,11 6,10 	"/>
	<polygon fill="#F15A5B" points="10,5 12,4 14,5 14,8 12,9 10,8 	"/>
</g>
</svg>
