<?xml version="1.0" encoding="utf-8"?>
<!-- Generator: Adobe Illustrator 21.0.0, SVG Export Plug-In . SVG Version: 6.00 Build 0)  -->
<svg version="1.1" baseProfile="basic" xmlns="http://www.w3.org/2000/svg" xmlns:xlink="http://www.w3.org/1999/xlink" x="0px"
	 y="0px" viewBox="0 0 20 20" xml:space="preserve">
<g id="Layer_2" display="none">
	<rect x="-299" y="-22" display="inline" fill="#686868" width="583" height="202"/>
</g>
<g id="UI">
</g>
<g id="Layer_1">
</g>
<g id="Layer_3">
	<circle fill="#F15A5B" cx="15" cy="8" r="3"/>
	<g opacity="0.6">
		<path fill="#F15A5B" d="M15,16.5c-1.4,0-2.2-0.3-2.5-0.5c0.2-0.2,1.1-0.5,2.5-0.5s2.2,0.3,2.5,0.5C17.2,16.2,16.4,16.5,15,16.5z"
			/>
		<path fill="#3A3A3A" d="M15,15c-1.7,0-3,0.4-3,1s1.3,1,3,1s3-0.4,3-1S16.7,15,15,15L15,15z"/>
	</g>
	<g opacity="0.3">
		<path fill="#F15A5B" d="M4.5,10c0-1.8,1.4-3.3,3.1-3.5C7.1,5.6,6.1,5,5,5C3.3,5,2,6.3,2,8c0,1.5,1.2,2.8,2.7,3
			C4.6,10.7,4.5,10.3,4.5,10z"/>
	</g>
	<g opacity="0.6">
		<path fill="#F15A5B" d="M12,13.5c-1.8,0-3.3-1.4-3.5-3.1C7.6,10.9,7,11.9,7,13c0,1.7,1.3,3,3,3c1.5,0,2.8-1.2,3-2.7
			C12.7,13.4,12.3,13.5,12,13.5z"/>
	</g>
	<g opacity="0.75">
		<path fill="#F15A5B" d="M11.5,8c0-0.3,0.1-0.7,0.2-1C10.2,7.2,9,8.5,9,10c0,1.7,1.3,3,3,3c1.1,0,2.1-0.6,2.6-1.5
			C12.9,11.3,11.5,9.8,11.5,8z"/>
	</g>
	<g opacity="0.5">
		<path fill="#F15A5B" d="M9.6,7.5C9.1,7.2,8.6,7,8,7c-1.7,0-3,1.3-3,3c0,1.1,0.6,2.1,1.5,2.6c0.1-1.2,0.9-2.3,2-2.8
			C8.6,8.9,9,8.1,9.6,7.5z"/>
	</g>
</g>
</svg>
