<?xml version="1.0" encoding="utf-8"?>
<!-- Generator: Adobe Illustrator 21.0.0, SVG Export Plug-In . SVG Version: 6.00 Build 0)  -->
<svg version="1.1" baseProfile="basic" xmlns="http://www.w3.org/2000/svg" xmlns:xlink="http://www.w3.org/1999/xlink" x="0px"
	 y="0px" viewBox="0 0 20 20" xml:space="preserve">
<g id="Layer_2" display="none">
	<rect x="-419" y="-52" display="inline" fill="#686868" width="583" height="202"/>
</g>
<g id="UI">
</g>
<g id="Layer_1">
</g>
<g id="Layer_3">
	<rect x="4" y="3" fill="#F15A5B" width="1" height="1"/>
	<rect x="6" y="2" fill="#F15A5B" width="1" height="1"/>
	<rect x="8" y="2" fill="#F15A5B" width="1" height="1"/>
	<rect x="10" y="2" fill="#F15A5B" width="1" height="1"/>
	<rect x="14" y="4" fill="#F15A5B" width="1" height="1"/>
	<rect x="15" y="6" fill="#F15A5B" width="1" height="1"/>
	<rect x="16" y="10" fill="#F15A5B" width="1" height="1"/>
	<rect x="16" y="8" fill="#F15A5B" width="1" height="1"/>
	<rect x="16" y="12" fill="#F15A5B" width="1" height="1"/>
	<rect x="15" y="14" fill="#F15A5B" width="1" height="1"/>
	<rect x="13" y="15" fill="#F15A5B" width="1" height="1"/>
	<rect x="11" y="16" fill="#F15A5B" width="1" height="1"/>
	<rect x="9" y="16" fill="#F15A5B" width="1" height="1"/>
	<rect x="7" y="15" fill="#F15A5B" width="1" height="1"/>
	<rect x="5" y="15" fill="#F15A5B" width="1" height="1"/>
	<rect x="4" y="13" fill="#F15A5B" width="1" height="1"/>
	<rect x="3" y="11" fill="#F15A5B" width="1" height="1"/>
	<rect x="2" y="9" fill="#F15A5B" width="1" height="1"/>
	<rect x="2" y="7" fill="#F15A5B" width="1" height="1"/>
	<rect x="3" y="5" fill="#F15A5B" width="1" height="1"/>
	<rect x="12" y="3" fill="#F15A5B" width="1" height="1"/>
	<circle fill="#BDBDBD" cx="10" cy="10" r="4"/>
</g>
</svg>
