<?xml version="1.0" encoding="utf-8"?>
<!-- Generator: Adobe Illustrator 21.0.0, SVG Export Plug-In . SVG Version: 6.00 Build 0)  -->
<svg version="1.1" baseProfile="basic" xmlns="http://www.w3.org/2000/svg" xmlns:xlink="http://www.w3.org/1999/xlink" x="0px"
	 y="0px" viewBox="0 0 20 20" xml:space="preserve">
<g id="Layer_2" display="none">
	<rect x="-449" y="-112" display="inline" fill="#686868" width="583" height="202"/>
</g>
<g id="UI">
</g>
<g id="Layer_1">
	<rect x="9" y="3" fill="#BDBDBD" width="2" height="2"/>
	<rect x="3" y="9" transform="matrix(4.547480e-11 -1 1 4.547480e-11 -6 14)" fill="#BDBDBD" width="2" height="2"/>
	<rect x="9" y="15" transform="matrix(-1 -8.867586e-11 8.867586e-11 -1 20 32)" fill="#BDBDBD" width="2" height="2"/>
	<rect x="15" y="9" transform="matrix(-1.346054e-10 1 -1 -1.346054e-10 26 -6)" fill="#BDBDBD" width="2" height="2"/>
	<rect x="6" y="4" fill="#FFFFFF" width="1" height="1"/>
	<rect x="6" y="15" fill="#FFFFFF" width="1" height="1"/>
	<rect x="13" y="15" fill="#FFFFFF" width="1" height="1"/>
	<rect x="13" y="4" fill="#FFFFFF" width="1" height="1"/>
	<rect x="4" y="6" fill="#FFFFFF" width="1" height="1"/>
	<rect x="4" y="13" fill="#FFFFFF" width="1" height="1"/>
	<rect x="15" y="13" fill="#FFFFFF" width="1" height="1"/>
	<rect x="15" y="6" fill="#FFFFFF" width="1" height="1"/>
	<rect x="10.1" y="4.2" transform="matrix(0.9239 0.3827 -0.3827 0.9239 3.6148 -3.7159)" fill="#F15A5B" width="2" height="6"/>
	<rect x="10.4" y="9.4" transform="matrix(-0.7071 0.7071 -0.7071 -0.7071 27.5563 11.4142)" fill="#F15A5B" width="2" height="4"/>
</g>
<g id="Layer_3">
</g>
</svg>
