<?xml version="1.0" encoding="utf-8"?>
<!-- Generator: Adobe Illustrator 21.0.0, SVG Export Plug-In . SVG Version: 6.00 Build 0)  -->
<svg version="1.1" baseProfile="basic" xmlns="http://www.w3.org/2000/svg" xmlns:xlink="http://www.w3.org/1999/xlink" x="0px"
	 y="0px" viewBox="0 0 20 20" xml:space="preserve">
<g id="Layer_2" display="none">
	<rect x="-449" y="-82" display="inline" fill="#686868" width="583" height="202"/>
</g>
<g id="UI">
</g>
<g id="Layer_1">
</g>
<g id="Layer_3">
	<polygon fill="#BDBDBD" points="8,5 10,1 12,5 	"/>
	<rect x="9.5" y="5" fill="#BDBDBD" width="1" height="5"/>
	<polygon fill="#FFFFFF" points="14,6 16,7 16,9 14,8 	"/>
	<polygon fill="#FFFFFF" points="6,6 4,7 4,9 6,8 	"/>
	<polygon fill="#BDBDBD" points="10,10 17,14 17,15 10,11 	"/>
	<polygon fill="#BDBDBD" points="10,10 3,14 3,15 10,11 	"/>
	<rect x="9" y="10" fill="#F15A5B" width="2" height="2"/>
	<polygon fill="#BDBDBD" points="5.5,15.7 1,16 3.5,12.3 	"/>
	<polygon fill="#BDBDBD" points="16.5,12.3 19,16 14.5,15.7 	"/>
	<polygon fill="#FFFFFF" points="8,16 10,15 12,16 10,17 	"/>
</g>
</svg>
