<?xml version="1.0" encoding="utf-8"?>
<!-- Generator: Adobe Illustrator 21.0.0, SVG Export Plug-In . SVG Version: 6.00 Build 0)  -->
<svg version="1.1" baseProfile="basic" xmlns="http://www.w3.org/2000/svg" xmlns:xlink="http://www.w3.org/1999/xlink" x="0px"
	 y="0px" viewBox="0 0 20 20" xml:space="preserve">
<g id="Layer_2" display="none">
	<rect x="-479" y="-82" display="inline" fill="#686868" width="583" height="202"/>
</g>
<g id="UI">
</g>
<g id="Layer_1">
</g>
<g id="Layer_3">
	<polygon fill="#BDBDBD" points="3,8 6,6 9,8 6,10 	"/>
	<polygon fill="#FFFFFF" points="3,8 3,11.5 6,13.5 6,10 	"/>
	<polygon fill="#BDBDBD" points="9,8 9,11.5 6,13.5 6,10 	"/>
	<polygon fill="#BDBDBD" points="9,4 12,2 15,4 12,6 	"/>
	<polygon fill="#FFFFFF" points="9,4 9,7.5 12,9.5 12,6 	"/>
	<polygon fill="#BDBDBD" points="15,4 15,7.5 12,9.5 12,6 	"/>
	<path fill="#F15A5B" d="M13.5,7.4L10,9.7v4l3.5,2.3l3.5-2.3v-4L13.5,7.4z M15.6,10l-2.1,1.4L11.4,10l2.1-1.4L15.6,10z M11,10.9
		l2,1.3v2.3l-2-1.3V10.9z M14,14.6v-2.3l2-1.3v2.3L14,14.6z"/>
</g>
</svg>
