<?xml version="1.0" encoding="utf-8"?>
<!-- Generator: Adobe Illustrator 21.0.0, SVG Export Plug-In . SVG Version: 6.00 Build 0)  -->
<svg version="1.1" baseProfile="basic" xmlns="http://www.w3.org/2000/svg" xmlns:xlink="http://www.w3.org/1999/xlink" x="0px"
	 y="0px" viewBox="0 0 20 20" xml:space="preserve">
<g id="Layer_2" display="none">
	<rect x="-269" y="-112" display="inline" fill="#686868" width="583" height="202"/>
</g>
<g id="UI">
</g>
<g id="Layer_1">
	<g id="Curve">
		<rect display="none" fill="none" stroke="#C4C8C8" stroke-miterlimit="10" width="20" height="20"/>
		<g>
			<path fill="#F15A5B" d="M5.5,18.5h-1C4.5,16.6,6.1,15,8,15h4c1.4,0,2.5-1.1,2.5-2.5S13.4,10,12,10H8c-1.9,0-3.5-1.6-3.5-3.5
				S6.1,3,8,3h4c1.4,0,2.5-1.1,2.5-2.5h1C15.5,2.4,13.9,4,12,4H8C6.6,4,5.5,5.1,5.5,6.5S6.6,9,8,9h4c1.9,0,3.5,1.6,3.5,3.5
				S13.9,16,12,16H8C6.6,16,5.5,17.1,5.5,18.5z"/>
		</g>
		<polygon fill="#BABABA" points="8,2 8,6 12,4 		"/>
		<polygon fill="#CCCCCC" points="8,1 12,3 12,4 8,6 		"/>
		<polygon fill="#CCCCCC" points="12,12 8,10 8,9 12,7 		"/>
		<polygon fill="#CCCCCC" points="8,13 12,15 12,16 8,18 		"/>
	</g>
</g>
<g id="Layer_3">
</g>
</svg>
