<?xml version="1.0" encoding="utf-8"?>
<!-- Generator: Adobe Illustrator 21.0.0, SVG Export Plug-In . SVG Version: 6.00 Build 0)  -->
<svg version="1.1" baseProfile="basic" xmlns="http://www.w3.org/2000/svg" xmlns:xlink="http://www.w3.org/1999/xlink" x="0px"
	 y="0px" viewBox="0 0 20 20" xml:space="preserve">
<g id="Layer_2" display="none">
	<rect x="-419" y="-112" display="inline" fill="#686868" width="583" height="202"/>
</g>
<g id="UI">
</g>
<g id="Layer_1">
	<g>
		<rect display="none" fill="none" stroke="#C4C8C8" stroke-width="0.1" stroke-miterlimit="10" width="20" height="20"/>
		<rect x="9" y="3" fill="none" width="2" height="2"/>
		<rect x="4" y="7" fill="#F15A5B" width="2" height="2"/>
		<rect x="8" y="9" fill="#F15A5B" width="2" height="2"/>
		<rect x="8" y="6" fill="#BDBDBD" width="2" height="2"/>
		<rect x="12" y="6" fill="#BDBDBD" width="2" height="2"/>
		<rect x="15" y="6" fill="#BDBDBD" width="2" height="2"/>
		<rect x="15" y="2" fill="#BDBDBD" width="2" height="2"/>
		<rect x="11" y="2" fill="#BDBDBD" width="2" height="2"/>
		<rect x="14" y="9" fill="#BDBDBD" width="2" height="2"/>
		<rect x="5" y="4" fill="#BDBDBD" width="2" height="2"/>
		<rect x="8" y="2" fill="#BDBDBD" width="2" height="2"/>
		<rect x="12" y="11" fill="#F15A5B" width="2" height="2"/>
		<rect x="10" y="10" fill="#F15A5B" width="2" height="2"/>
		<rect x="13" y="12" fill="#F15A5B" width="2" height="2"/>
		<path fill="#F15A5B" d="M14,14v-2h-1v-1H9v-1H7V8H4.3C4.1,8.6,4,9.3,4,10c0,3.3,2.7,6,6,6c1.8,0,3.4-0.8,4.5-2H14z"/>
	</g>
</g>
<g id="Layer_3">
</g>
</svg>
