<?xml version="1.0" encoding="utf-8"?>
<!-- Generator: Adobe Illustrator 21.0.0, SVG Export Plug-In . SVG Version: 6.00 Build 0)  -->
<svg version="1.1" baseProfile="basic" xmlns="http://www.w3.org/2000/svg" xmlns:xlink="http://www.w3.org/1999/xlink" x="0px"
	 y="0px" viewBox="0 0 20 20" xml:space="preserve">
<g id="Layer_2" display="none">
	<rect x="-239" y="-112" display="inline" fill="#686868" width="583" height="202"/>
</g>
<g id="UI">
</g>
<g id="Layer_1">
	<g id="Trails">
		
			<rect x="2" y="2" display="none" fill="none" stroke="#686868" stroke-width="0.2" stroke-miterlimit="10" width="16" height="16"/>
		<g>
			<polygon fill="#F15A5B" points="11.9,6.1 9.9,4.1 8.1,5 6,5 6,4 7.9,4 10.1,2.9 12.1,4.9 13.9,4 17,4 17,5 14.1,5 			"/>
		</g>
		<circle fill="#CCCCCC" cx="5.5" cy="4.5" r="1.5"/>
		<g>
			<polygon fill="#F15A5B" points="11.9,16.1 9.9,14.1 8.1,15 6,15 6,14 7.9,14 10.1,12.9 12.1,14.9 13.9,14 17,14 17,15 14.1,15 
							"/>
		</g>
		<circle fill="#CCCCCC" cx="5.5" cy="14.5" r="1.5"/>
		<g>
			<polygon fill="#F15A5B" points="7.8,8 9.8,10 11.5,9.1 13.7,9.1 13.7,10.1 11.8,10.1 9.6,11.2 7.6,9.2 5.8,10.1 2.7,10.1 
				2.7,9.1 5.5,9.1 			"/>
		</g>
		<circle fill="#CCCCCC" cx="14.7" cy="9.5" r="1.5"/>
	</g>
</g>
<g id="Layer_3">
</g>
</svg>
