<?xml version="1.0" encoding="utf-8"?>
<!-- Generator: Adobe Illustrator 19.2.0, SVG Export Plug-In . SVG Version: 6.00 Build 0)  -->
<svg version="1.1" baseProfile="tiny" xmlns="http://www.w3.org/2000/svg" xmlns:xlink="http://www.w3.org/1999/xlink" x="0px"
	 y="0px" viewBox="0 0 64 64" xml:space="preserve">
<g id="BG" display="none">
	<polygon display="inline" fill="#444444" points="-188.5,-435.7 -188.5,-226.8 -188.5,20.7 -188.5,229.6 352.5,229.6 352.5,20.7 
		352.5,-226.8 352.5,-435.7 	"/>
</g>
<g id="Colour">
</g>
<g id="Time">
</g>
<g id="Breakout">
</g>
<g id="Repro">
</g>
<g id="Python">
</g>
<g id="PaintFX">
</g>
<g id="Explode">
</g>
<g id="SoUP">
	<g>
		<path fill="#BDBDBD" d="M32.7,49.8v-5.5c0-2.9,2.4-5.3,5.3-5.3h7.2c0.9,0,1.6-0.7,1.6-1.6s-0.7-1.6-1.6-1.6H32.6V32h12.5
			c2.9,0,5.3,2.4,5.3,5.3s-2.4,5.3-5.3,5.3H38c-0.9,0-1.6,0.7-1.6,1.6v5.5H32.7z"/>
		<path fill="#3A3A3A" d="M45.2,32.5c2.6,0,4.8,2.1,4.8,4.8s-2.1,4.8-4.8,4.8H38c-1.2,0-2.1,1-2.1,2.1v5h-2.7v-5
			c0-2.6,2.1-4.8,4.8-4.8h7.2c1.2,0,2.1-1,2.1-2.1s-1-2.1-2.1-2.1h-12v-2.7H45.2 M45.2,31.5h-12h-1v1v2.7v1h1h12
			c0.6,0,1.1,0.5,1.1,1.1s-0.5,1.1-1.1,1.1H38c-3.2,0-5.8,2.6-5.8,5.8v5v1h1h2.7h1v-1v-5c0-0.6,0.5-1.1,1.1-1.1h7.2
			c3.2,0,5.8-2.6,5.8-5.8C51,34.1,48.4,31.5,45.2,31.5L45.2,31.5z"/>
	</g>
	<g>
		<path fill="#BDBDBD" d="M13.4,30.4v-3.7h12.4c0.9,0,1.6-0.7,1.6-1.6v-0.2c0-0.9-0.7-1.6-1.6-1.6h-7.2c-2.9,0-5.3-2.4-5.3-5.3v-0.2
			c0-2.9,2.4-5.3,5.3-5.3h12.4v3.7H18.7c-0.9,0-1.6,0.7-1.6,1.6V18c0,0.9,0.7,1.6,1.6,1.6h7.2c2.9,0,5.3,2.4,5.3,5.3v0.2
			c0,2.9-2.4,5.3-5.3,5.3H13.4z"/>
		<path fill="#3A3A3A" d="M30.6,13.1v2.7H18.7c-1.2,0-2.1,1-2.1,2.1V18c0,1.2,1,2.1,2.1,2.1h7.2c2.6,0,4.8,2.1,4.8,4.8v0.2
			c0,2.6-2.1,4.8-4.8,4.8H13.9v-2.7h11.9c1.2,0,2.1-1,2.1-2.1v-0.2c0-1.2-1-2.1-2.1-2.1h-7.2c-2.6,0-4.8-2.1-4.8-4.8v-0.2
			c0-2.6,2.1-4.8,4.8-4.8H30.6 M31.6,12.1h-1H18.7c-3.2,0-5.8,2.6-5.8,5.8V18c0,3.2,2.6,5.8,5.8,5.8h7.2c0.6,0,1.1,0.5,1.1,1.1v0.2
			c0,0.6-0.5,1.1-1.1,1.1H13.9h-1v1v2.7v1h1h11.9c3.2,0,5.8-2.6,5.8-5.8v-0.2c0-3.2-2.6-5.8-5.8-5.8h-7.2c-0.6,0-1.1-0.5-1.1-1.1
			v-0.2c0-0.6,0.5-1.1,1.1-1.1h11.9h1v-1v-2.7V12.1L31.6,12.1z"/>
	</g>
	<g>
		<path fill="#BDBDBD" d="M18.7,49.7c-2.9,0-5.3-2.4-5.3-5.3V32h3.7v12.4c0,0.9,0.7,1.6,1.6,1.6h7.2c0.9,0,1.6-0.7,1.6-1.6V32h3.7
			v12.4c0,2.9-2.4,5.3-5.3,5.3H18.7z"/>
		<path fill="#3A3A3A" d="M30.7,32.5v11.9c0,2.6-2.1,4.8-4.8,4.8h-7.2c-2.6,0-4.8-2.1-4.8-4.8V32.5h2.7v11.9c0,1.2,1,2.1,2.1,2.1
			h7.2c1.2,0,2.1-1,2.1-2.1V32.5H30.7 M31.7,31.5h-1H28h-1v1v11.9c0,0.6-0.5,1.1-1.1,1.1h-7.2c-0.6,0-1.1-0.5-1.1-1.1V32.5v-1h-1
			h-2.7h-1v1v11.9c0,3.2,2.6,5.8,5.8,5.8h7.2c3.2,0,5.8-2.6,5.8-5.8V32.5V31.5L31.7,31.5z"/>
	</g>
	<g>
		<path fill="#BDBDBD" d="M38,30.4c-2.9,0-5.3-2.4-5.3-5.3v-7.3c0-2.9,2.4-5.3,5.3-5.3h7.2c2.9,0,5.3,2.4,5.3,5.3v7.3
			c0,2.9-2.4,5.3-5.3,5.3H38z M38,16.2c-0.9,0-1.6,0.7-1.6,1.6v7.3c0,0.9,0.7,1.6,1.6,1.6h7.2c0.9,0,1.6-0.7,1.6-1.6v-7.3
			c0-0.9-0.7-1.6-1.6-1.6H38z"/>
		<path fill="#3A3A3A" d="M45.2,13.1c2.6,0,4.8,2.1,4.8,4.8v7.3c0,2.6-2.1,4.8-4.8,4.8H38c-2.6,0-4.8-2.1-4.8-4.8v-7.3
			c0-2.6,2.1-4.8,4.8-4.8H45.2 M38,27.2h7.2c1.2,0,2.1-1,2.1-2.1v-7.3c0-1.2-1-2.1-2.1-2.1H38c-1.2,0-2.1,1-2.1,2.1v7.3
			C35.9,26.3,36.8,27.2,38,27.2 M45.2,12.1H38c-3.2,0-5.8,2.6-5.8,5.8v7.3c0,3.2,2.6,5.8,5.8,5.8h7.2c3.2,0,5.8-2.6,5.8-5.8v-7.3
			C51,14.7,48.4,12.1,45.2,12.1L45.2,12.1z M38,26.2c-0.6,0-1.1-0.5-1.1-1.1v-7.3c0-0.6,0.5-1.1,1.1-1.1h7.2c0.6,0,1.1,0.5,1.1,1.1
			v7.3c0,0.6-0.5,1.1-1.1,1.1H38L38,26.2z"/>
	</g>
</g>
<g id="Maths">
</g>
<g id="Deformer">
</g>
<g id="Spring">
</g>
<g id="Merge">
</g>
<g id="Delay">
</g>
<g id="Symmetry">
</g>
<g id="Audio">
</g>
<g id="Trig">
</g>
<g id="Transform">
</g>
<g id="Random">
</g>
<g id="Initial_State">
</g>
<g id="Trails">
</g>
<g id="Noise">
</g>
<g id="Influence">
</g>
<g id="Replicator">
</g>
<g id="Mute">
</g>
<g id="Orient">
</g>
<g id="Flight">
</g>
<g id="ID">
</g>
<g id="Falloff">
</g>
<g id="Offset">
</g>
<g id="Waiter">
</g>
<g id="Curve">
</g>
<g id="Inherit">
</g>
<g id="Points">
</g>
<g id="Visibilty">
</g>
<g id="Distribute">
</g>
<g id="ReproUI">
</g>
</svg>
