<?xml version="1.0" encoding="utf-8"?>
<!-- Generator: Adobe Illustrator 21.0.0, SVG Export Plug-In . SVG Version: 6.00 Build 0)  -->
<svg version="1.1" baseProfile="basic" xmlns="http://www.w3.org/2000/svg" xmlns:xlink="http://www.w3.org/1999/xlink" x="0px"
	 y="0px" viewBox="0 0 20 20" xml:space="preserve">
<g id="Layer_2" display="none">
	<rect x="-329" y="-22" display="inline" fill="#686868" width="583" height="202"/>
</g>
<g id="UI">
</g>
<g id="Layer_1">
</g>
<g id="Layer_3">
	<path fill="#BDBDBD" d="M12,12c-1.1,0-2-0.9-2-2s0.9-2,2-2h2.7c-0.8-2.3-3-4-5.7-4c-3.3,0-6,2.7-6,6s2.7,6,6,6c2.6,0,4.8-1.7,5.7-4
		H12z"/>
	<path fill="#BDBDBD" d="M14.7,8c0.2,0.6,0.3,1.3,0.3,2s-0.1,1.4-0.3,2H16V8H14.7z"/>
	<rect x="17" y="8" fill="#BDBDBD" width="1" height="4"/>
	<rect x="8" y="5" fill="#F15A5B" width="2" height="2"/>
	<rect x="7" y="8" fill="#F15A5B" width="2" height="2"/>
	<rect x="6" y="11" fill="#F15A5B" width="2" height="2"/>
	<rect x="9" y="13" fill="#F15A5B" width="2" height="2"/>
</g>
</svg>
