<?xml version="1.0" encoding="utf-8"?>
<!-- Generator: Adobe Illustrator 21.0.0, SVG Export Plug-In . SVG Version: 6.00 Build 0)  -->
<svg version="1.1" baseProfile="basic" id="Layer_1"
	 xmlns="http://www.w3.org/2000/svg" xmlns:xlink="http://www.w3.org/1999/xlink" x="0px" y="0px" viewBox="0 0 20 20"
	 xml:space="preserve">
<g id="Layer_3">
	<circle fill="#BDBDBD" cx="10" cy="10" r="7"/>
	<path fill="#F15A5B" d="M10,5H9V4H8H6.4C5.9,4.3,5.4,4.7,5,5.1V6H4.3C4.2,6.1,4.1,6.3,4,6.4V9h1v1h1v1h1v1h1v2h1v1h1v-1v-1h1v-2h-1
		v-1H7V9h1V8h1V7h2V4h-1V5z"/>
	<path fill="#F15A5B" d="M16,13v-1h0.7c0.2-0.6,0.3-1.3,0.3-2c0-1.9-0.8-3.6-2-4.9V6h-2v2h-1v2h1v1h1v2h1v1h0.7
		c0.2-0.3,0.4-0.7,0.6-1H16z"/>
</g>
</svg>
