<?xml version="1.0" encoding="utf-8"?>
<!-- Generator: Adobe Illustrator 21.0.0, SVG Export Plug-In . SVG Version: 6.00 Build 0)  -->
<svg version="1.1" baseProfile="basic" xmlns="http://www.w3.org/2000/svg" xmlns:xlink="http://www.w3.org/1999/xlink" x="0px"
	 y="0px" viewBox="0 0 20 20" xml:space="preserve">
<g id="Layer_2" display="none">
	<rect x="-359" y="-52" display="inline" fill="#686868" width="583" height="202"/>
</g>
<g id="UI">
</g>
<g id="Layer_1">
</g>
<g id="Layer_3">
	<rect x="9" y="2" fill="#BDBDBD" width="1" height="16"/>
	<g>
		<circle fill="#F15A5B" cx="5" cy="15" r="1"/>
		<circle fill="#F15A5B" cx="7" cy="12" r="1"/>
		<polyline fill="none" stroke="#BDBDBD" stroke-miterlimit="10" points="5,12.5 7,14.5 9,14.5 		"/>
	</g>
	<g>
		<circle fill="#F15A5B" cx="14" cy="13" r="1"/>
		<circle fill="#F15A5B" cx="12" cy="10" r="1"/>
		<polyline fill="none" stroke="#BDBDBD" stroke-miterlimit="10" points="14,10.5 12,12.5 10,12.5 		"/>
	</g>
	<g>
		<circle fill="#F15A5B" cx="14" cy="7" r="1"/>
		<circle fill="#F15A5B" cx="12" cy="4" r="1"/>
		<polyline fill="none" stroke="#BDBDBD" stroke-miterlimit="10" points="14,4.5 12,6.5 10,6.5 		"/>
	</g>
	<g>
		<circle fill="#F15A5B" cx="5" cy="9" r="1"/>
		<circle fill="#F15A5B" cx="7" cy="6" r="1"/>
		<polyline fill="none" stroke="#BDBDBD" stroke-miterlimit="10" points="5,6.5 7,8.5 9,8.5 		"/>
	</g>
	<rect x="4" y="14" fill="#F15A5B" width="2" height="2"/>
	<rect x="13" y="12" fill="#F15A5B" width="2" height="2"/>
	<rect x="11" y="9" fill="#F15A5B" width="2" height="2"/>
	<rect x="6" y="11" fill="#F15A5B" width="2" height="2"/>
	<rect x="4" y="8" fill="#F15A5B" width="2" height="2"/>
	<rect x="6" y="5" fill="#F15A5B" width="2" height="2"/>
	<rect x="11" y="3" fill="#F15A5B" width="2" height="2"/>
	<rect x="13" y="6" fill="#F15A5B" width="2" height="2"/>
</g>
</svg>
