<?xml version="1.0" encoding="utf-8"?>
<!-- Generator: Adobe Illustrator 19.2.0, SVG Export Plug-In . SVG Version: 6.00 Build 0)  -->
<svg version="1.1" baseProfile="tiny" xmlns="http://www.w3.org/2000/svg" xmlns:xlink="http://www.w3.org/1999/xlink" x="0px"
	 y="0px" viewBox="0 0 64 64" xml:space="preserve">
<g id="BG" display="none">
	<polygon display="inline" fill="#444444" points="-324.5,-231.7 -324.5,-22.8 -324.5,224.7 -324.5,433.6 216.5,433.6 216.5,224.7 
		216.5,-22.8 216.5,-231.7 	"/>
</g>
<g id="Colour">
</g>
<g id="Time">
</g>
<g id="Breakout">
</g>
<g id="Repro">
</g>
<g id="Python">
</g>
<g id="PaintFX">
</g>
<g id="Explode">
</g>
<g id="SoUP">
</g>
<g id="Maths">
</g>
<g id="Deformer">
</g>
<g id="Spring">
</g>
<g id="Merge">
</g>
<g id="Delay">
</g>
<g id="Symmetry">
</g>
<g id="Audio">
</g>
<g id="Trig">
</g>
<g id="Transform">
</g>
<g id="Random">
</g>
<g id="Initial_State">
</g>
<g id="Trails">
</g>
<g id="Noise">
	<g display="none">
		<g display="inline">
			<g>
				<path fill="#BDBDBD" d="M33.7,15c-0.2,0.2-0.4,0.3-0.6,0.5c0,0,0,0,0,0c0,0,0,0-0.1,0.1c-1.2,1.1-2.1,2.6-3,4
					c-0.9,1.5-1.8,2.8-2.7,3.4c-0.1,0.1-0.2,0.1-0.3,0.1c-0.9,0.4-1.8,0-2.8-1.3c-0.4-0.5-0.8-1.1-1.2-1.6c-1.6-2-2.8-3.6-4.1-3.2
					c-0.3,0.1-0.6,0.3-0.9,0.4c-0.4,0.2-0.7,0.4-1,0.7c-0.8,0.8-1.2,1.7-1.7,2.9c-0.6,1.3-1.2,2.7-2.5,4c-0.3,0.3-0.6,0.6-0.9,0.8
					c-0.4,0.4-0.8,0.7-1.1,0.9c-0.9,0.5-1.7,0.5-2.3,0.5c0,0,0,0,0,0c-0.4,0.1-0.8,0.2-1.2,0.4l0,12.1l26.9-15.5l0-9.6
					c-0.1,0-0.1,0.1-0.2,0.1C33.9,14.8,33.8,14.9,33.7,15z"/>
				<path fill="#3A3A3A" d="M10.8,26.8c0.4-0.2,0.7-0.5,1.1-0.9c-0.3,0.2-0.6,0.4-0.8,0.6c-0.8,0.5-1.5,0.6-2.2,0.7
					c-0.2,0-0.3,0.1-0.5,0.1c0,0,0,0,0,0C9.1,27.3,9.8,27.3,10.8,26.8z"/>
				<path fill="#3A3A3A" d="M33.7,15c0.1-0.1,0.2-0.1,0.3-0.2C33.9,14.8,33.8,14.9,33.7,15z"/>
				<path fill="#3A3A3A" d="M14.9,21c0.6-1.2,1.1-2.5,2.2-3.4c-1.2,1.1-2,2.5-2.7,3.9c-0.7,1.3-1.4,2.7-2.5,3.8c0,0-0.1,0.1-0.1,0.1
					c0.3-0.2,0.5-0.4,0.8-0.7C13.8,23.5,14.4,22.2,14.9,21z"/>
				<path fill="#3A3A3A" d="M34.7,13.7l-0.3,0.2l0,0.6c-0.1,0.1-0.2,0.1-0.3,0.2l0,9.6L7.3,39.8l0-12.1c-0.1,0-0.2,0.1-0.3,0.1
					l0-0.6c0.6-0.3,1.1-0.5,1.6-0.6c-0.4,0-0.8,0-1.2,0.2c-0.2,0.1-0.4,0.2-0.5,0.5l-0.1,0.2l0,13.2l28-16.2L34.7,13.7z"/>
				<path fill="#3A3A3A" d="M19,17.1c-0.3,0.1-0.7,0.3-0.9,0.4c-0.4,0.2-0.7,0.4-0.9,0.7c0.3-0.3,0.6-0.5,1-0.7
					C18.3,17.4,18.6,17.2,19,17.1z"/>
				<path fill="#F15A5B" d="M7,27.8c0.1-0.1,0.2-0.1,0.3-0.1c0.4-0.2,0.8-0.3,1.2-0.4c0.2,0,0.3-0.1,0.5-0.1
					c0.7-0.1,1.4-0.3,2.2-0.7c0.3-0.2,0.5-0.3,0.8-0.6c0.3-0.2,0.6-0.5,0.9-0.8c1.3-1.3,2-2.7,2.5-4c0.5-1.1,1-2.1,1.7-2.9
					c0.3-0.3,0.6-0.5,0.9-0.7c0.3-0.2,0.6-0.3,0.9-0.4c1.3-0.5,2.5,1.1,4.1,3.2c0.4,0.5,0.8,1,1.2,1.6c1,1.2,1.9,1.6,2.8,1.3
					c0.1,0,0.2-0.1,0.3-0.1c1-0.6,1.8-1.9,2.7-3.4c0.9-1.4,1.8-2.9,3-4c0,0,0,0,0.1-0.1c0,0,0,0,0,0c0.2-0.2,0.4-0.3,0.6-0.5
					c0.1-0.1,0.2-0.1,0.3-0.2c0.1-0.1,0.1-0.1,0.2-0.1c0.1-0.1,0.2-0.1,0.3-0.2l0-0.6c-2.1,1.2-3.6,3.6-4.8,5.5
					c-0.9,1.4-1.6,2.6-2.4,3.1c-0.1,0-0.1,0.1-0.2,0.1c-0.7,0.3-1.5-0.1-2.4-1.2c-0.4-0.5-0.8-1.1-1.2-1.6c-1.6-2.1-2.9-3.8-4.4-3.3
					c-0.4,0.1-0.7,0.3-1,0.5c-0.3,0.2-0.6,0.4-0.9,0.7c-1.1,1-1.7,2.2-2.2,3.4c-0.6,1.2-1.1,2.5-2.3,3.6c-0.3,0.3-0.6,0.5-0.8,0.7
					c-0.3,0.2-0.5,0.4-0.7,0.5c-0.7,0.4-1.4,0.5-2,0.7c-0.1,0-0.3,0.1-0.4,0.1c-0.5,0.1-1,0.3-1.6,0.6L7,27.8z"/>
			</g>
		</g>
		<g display="inline">
			<g>
				<path fill="#BDBDBD" d="M39.4,19.4c-1.7,1-2.8,2.9-3.8,4.6c-0.6,1-1.1,1.9-1.7,2.6c-0.3,0.4-0.6,0.6-1,0.8l-0.1,0.1
					c-0.7,0.4-1.5,0.2-2.3-0.4c-0.6-0.5-1.2-1-1.7-1.6c-1.4-1.4-2.7-2.7-4.2-1.8c-0.1,0.1-0.2,0.1-0.3,0.2c-2,1.5-3,2.7-4,3.7
					c-0.9,1-1.7,1.9-3,2.9c-0.4,0.3-0.7,0.5-1.1,0.7c-1.4,0.8-2.7,1.2-3.4,1.3l0,0c0,0,0,0-0.1,0c-0.1,0-0.1,0-0.1,0l0,11.1
					l26.9-15.6l0-8.8C39.5,19.4,39.5,19.4,39.4,19.4C39.4,19.4,39.4,19.4,39.4,19.4z"/>
				<path fill="#3A3A3A" d="M33.9,26.6c0.6-0.7,1.1-1.6,1.7-2.6C35,25,34.5,26,33.9,26.6z"/>
				<path fill="#3A3A3A" d="M40,18.5l-0.2,0.1l0,0.6c-0.1,0-0.2,0.1-0.2,0.1l0,8.8L12.6,43.7l0-11.1c0,0,0.1,0,0.1,0
					c-0.3,0.1-0.5,0.1-0.5,0.1l0.2-0.7L12,32l0,12.6l28-16.2L40,18.5z"/>
				<path fill="#3A3A3A" d="M39.4,19.4C39.4,19.4,39.4,19.4,39.4,19.4C39.4,19.4,39.4,19.4,39.4,19.4C39.4,19.4,39.4,19.4,39.4,19.4
					z"/>
				<path fill="#F15A5B" d="M12.7,32.6C12.7,32.6,12.7,32.6,12.7,32.6L12.7,32.6c0.8-0.2,2-0.5,3.5-1.3c0.4-0.2,0.7-0.5,1.1-0.7
					c1.4-1,2.2-1.9,3-2.9c0.9-1,2-2.2,4-3.7c0.1-0.1,0.2-0.2,0.3-0.2c1.5-0.9,2.8,0.4,4.2,1.8c0.5,0.5,1.1,1.1,1.7,1.6
					c0.8,0.6,1.6,0.8,2.3,0.4l0.1-0.1c0.3-0.2,0.7-0.5,1-0.8c0.6-0.7,1.1-1.6,1.7-2.6c1-1.7,2.2-3.7,3.8-4.6c0,0,0,0,0,0
					c0,0,0,0,0,0c0,0,0.1,0,0.1,0c0.1,0,0.2-0.1,0.2-0.1l0-0.6c-0.1,0.1-0.3,0.1-0.4,0.2c-1.9,1.1-3.1,3.2-4.2,5
					c-0.8,1.4-1.5,2.6-2.3,3c0,0,0,0-0.1,0c-0.6,0.3-1.2,0.2-1.9-0.4c-0.6-0.5-1.1-1-1.7-1.6c-1.5-1.5-2.8-2.9-4.6-1.9l0,0
					c-0.1,0.1-0.3,0.2-0.4,0.3c-2.1,1.6-3.1,2.8-4.1,3.9c-0.9,1-1.6,1.8-2.9,2.7c-0.3,0.2-0.7,0.5-1,0.7c-2,1.2-3.8,1.3-3.8,1.3
					l-0.2,0.7C12.2,32.6,12.4,32.6,12.7,32.6z"/>
			</g>
		</g>
		<g display="inline">
			<g>
				<path fill="#BDBDBD" d="M41.5,26.1c-0.2,0.3-0.4,0.7-0.6,1c-0.8,1.5-1.6,3-2.7,3.6C38,30.9,37.7,31,37.5,31
					c-0.3,0-0.5,0-0.8-0.1c-0.8-0.3-1.5-0.9-2.2-1.4c-1.3-1-2.5-2-4-1.1c-0.3,0.2-0.7,0.5-1,0.8c-1.3,1.4-2.2,2.1-3,2.6
					c-0.8,0.5-1.4,0.6-2.1,0.7c-0.6,0.1-1.2,0.2-2,0.6c-1,0.4-1.9,1-2.8,1.4c-0.8,0.5-1.5,0.9-1.9,1.1l0,12.2l26.9-15.6l0-9.7
					c-0.1,0.1-0.3,0.1-0.4,0.2C43.1,23.4,42.3,24.7,41.5,26.1z"/>
				<path fill="#3A3A3A" d="M45.2,21.8L45,21.8l-0.1,0.7c-0.1,0-0.1,0.1-0.2,0.1l0,9.7L17.8,47.8l0-12.2c-0.2,0.1-0.2,0.2-0.2,0.2
					l0-0.6l-0.2,0.2l0,13.4l28-16.2L45.2,21.8z"/>
				<path fill="#3A3A3A" d="M40.9,27.1c-0.8,1.5-1.6,3-2.7,3.6C38,30.9,37.7,31,37.5,31c0.3,0,0.6-0.1,0.8-0.3
					C39.3,30.1,40.1,28.6,40.9,27.1z"/>
				<path fill="#F15A5B" d="M17.7,35.7c0.3-0.2,1-0.7,1.9-1.1c0.8-0.5,1.8-1,2.8-1.4c0.8-0.4,1.4-0.5,2-0.6c0.7-0.1,1.3-0.3,2.1-0.7
					c0.8-0.4,1.7-1.2,3-2.6c0.4-0.4,0.7-0.6,1-0.8c1.5-0.9,2.7,0.1,4,1.1c0.7,0.6,1.4,1.1,2.2,1.4c0.3,0.1,0.6,0.1,0.8,0.1
					c0.3,0,0.6-0.1,0.8-0.3c1-0.6,1.9-2.1,2.7-3.6c0.2-0.3,0.4-0.7,0.6-1c0.8-1.4,1.6-2.6,2.8-3.3c0.1-0.1,0.3-0.1,0.4-0.2
					c0.1,0,0.1-0.1,0.2-0.1l0.1-0.7c-0.3,0.1-0.5,0.2-0.7,0.3c-1.6,1-2.7,3-3.7,4.8c-0.9,1.6-1.5,2.7-2.3,3.2
					c-0.4,0.2-0.8,0.3-1.3,0.1c-0.8-0.3-1.5-0.8-2.1-1.4c-1.3-1-2.6-2.1-4.4-1.1c-0.4,0.2-0.8,0.5-1.2,1c-1.2,1.3-2.1,2-2.8,2.4
					c-0.7,0.4-1.3,0.5-2,0.7c-0.6,0.1-1.2,0.3-2.1,0.6c-1,0.4-2,1-2.8,1.5l0,0c-1.3,0.7-2.2,1.3-2.2,1.3l0,0.6
					C17.5,35.8,17.6,35.8,17.7,35.7z"/>
			</g>
		</g>
		<g display="inline">
			<g>
				<path fill="none" d="M43.9,35.4c-0.2,0.1-0.3,0.2-0.5,0.2c0,0,0,0,0,0c0,0,0,0,0,0C43.6,35.6,43.7,35.5,43.9,35.4z"/>
				<path fill="#BDBDBD" d="M49.5,27.1c-0.3,0.2-0.6,0.4-0.8,0.7c-0.8,0.9-1.5,2.2-2.1,3.7c-0.7,1.5-1.4,2.9-2.3,3.7
					c-0.1,0.1-0.3,0.2-0.4,0.3c-0.2,0.1-0.3,0.2-0.5,0.2c0,0,0,0,0,0c0,0,0,0,0,0c-0.1,0-0.2,0-0.3,0.1c-1,0.1-1.9-0.5-2.8-1.1
					c-1.2-0.8-2.3-1.5-3.7-0.7c-0.5,0.3-1.1,0.8-1.7,1.6c-0.8,1.1-1.5,1.7-2.2,2.1c-1.2,0.7-2.1,0.2-3-0.3c-0.6-0.4-1.2-0.7-2-0.6
					c-0.5,0.1-1.1,0.3-1.6,0.6c-1.2,0.7-2.2,1.8-2.7,2.3c-0.1,0.1-0.1,0.2-0.2,0.2l0,12.1l26.9-15.6l0-9.5c0,0,0,0,0,0
					C49.9,26.9,49.7,27,49.5,27.1z"/>
				<path fill="#3A3A3A" d="M50.1,26.9c-0.2,0.1-0.4,0.1-0.6,0.2c-0.3,0.2-0.6,0.4-0.8,0.7c0.3-0.3,0.5-0.5,0.8-0.7
					C49.7,27,49.9,26.9,50.1,26.9z"/>
				<path fill="#3A3A3A" d="M26.1,37.3c0.5-0.3,1.1-0.5,1.6-0.6C27.2,36.8,26.6,37,26.1,37.3c-1.2,0.7-2.2,1.8-2.7,2.3
					C23.9,39.1,24.9,38,26.1,37.3z"/>
				<path fill="#3A3A3A" d="M46.6,31.4c-0.7,1.4-1.4,2.9-2.3,3.7C45.2,34.4,45.9,32.9,46.6,31.4z"/>
				<path fill="#3A3A3A" d="M50.6,26.1l-0.2,0l-0.2,0.7c-0.1,0-0.1,0-0.2,0l0,9.5L23.2,52l0-12.1C23.1,40,23.1,40,23,40l-0.3-0.4
					l-0.1,0.2l0,13l28-16.2L50.6,26.1z"/>
				<path fill="#F15A5B" d="M23.2,39.9c0.1-0.1,0.1-0.1,0.2-0.2c0.5-0.6,1.5-1.6,2.7-2.3c0.5-0.3,1.1-0.5,1.6-0.6
					c0.8-0.1,1.4,0.2,2,0.6c0.9,0.5,1.7,1,3,0.3c0.6-0.4,1.3-1,2.2-2.1c0.6-0.8,1.2-1.3,1.7-1.6c1.4-0.8,2.6-0.1,3.7,0.7
					c0.9,0.6,1.8,1.1,2.8,1.1c0.1,0,0.2,0,0.3-0.1c0,0,0,0,0,0c0,0,0,0,0,0c0.2,0,0.3-0.1,0.5-0.2c0.1-0.1,0.3-0.2,0.4-0.3
					c0.9-0.8,1.6-2.3,2.3-3.7c0.7-1.4,1.3-2.8,2.1-3.7c0.3-0.3,0.5-0.5,0.8-0.7c0.2-0.1,0.4-0.2,0.6-0.2c0,0,0,0,0,0
					c0.1,0,0.1,0,0.2,0l0.2-0.7c-0.3,0.1-0.7,0.2-1,0.4c-1.5,0.9-2.5,2.9-3.4,4.8c-0.9,1.8-1.5,3.1-2.3,3.5
					c-0.2,0.1-0.4,0.2-0.6,0.2c-0.9,0.1-1.7-0.5-2.6-1c-1.2-0.8-2.5-1.6-4.1-0.7c-0.6,0.3-1.3,0.9-2,1.9c-0.7,1-1.3,1.5-1.9,1.8
					c-1,0.6-1.8,0.2-2.6-0.3c-0.7-0.4-1.3-0.8-2.2-0.6c-0.6,0.1-1.2,0.3-1.8,0.7c-1.8,1-3.2,2.8-3.3,3L23,40
					C23.1,40,23.1,40,23.2,39.9z"/>
			</g>
		</g>
		<g display="inline">
			<g>
				<path fill="#BDBDBD" d="M54.9,30.6c-0.1,0-0.2,0.1-0.3,0.1c0,0,0,0,0,0c0,0-0.1,0-0.1,0.1c-0.3,0.2-0.6,0.5-0.9,1c0,0,0,0,0,0
					c0,0,0,0,0,0c-0.5,0.8-1,2-1.6,3.4c-0.8,2-1.6,3.9-2.7,4.6c-1.3,0.7-2.3,0.1-3.4-0.5c-1.1-0.7-2.2-1.3-3.6-0.5
					c-0.7,0.4-1.4,1.1-2.3,2.4c-0.7,1-1.3,1.7-1.9,2c-0.1,0.1-0.2,0.1-0.3,0.2c-1.3,0.5-2.2-0.7-3-1.9c-0.6-0.8-1.2-1.7-2-1.8
					c0,0-0.1,0-0.1,0c-0.5-0.1-0.9,0.1-1.4,0.3c-1,0.6-2,1.9-2.6,2.7c-0.2,0.3-0.4,0.6-0.5,0.8l0,12.1l26.9-15.5l0-9.6
					c-0.1,0-0.1,0-0.2,0C55,30.6,55,30.6,54.9,30.6z"/>
				<path fill="#3A3A3A" d="M55.8,29.9l-0.1,0l-0.2,0.7c-0.1,0-0.1,0-0.1,0l0,9.6L28.3,55.7l0-12.1c0,0.1-0.1,0.1-0.1,0.1l-0.4-0.2
					l-0.1,0.1l0,13l28-16.2L55.8,29.9z"/>
				<path fill="#3A3A3A" d="M31.3,40.1c0.4-0.3,0.9-0.4,1.4-0.3C32.2,39.7,31.7,39.8,31.3,40.1c-1.1,0.6-2,1.9-2.6,2.7
					C29.3,42,30.3,40.7,31.3,40.1z"/>
				<path fill="#3A3A3A" d="M54.9,30.6c0,0,0.1,0,0.1,0C55,30.6,55,30.6,54.9,30.6z"/>
				<path fill="#3A3A3A" d="M54.6,30.8C54.6,30.8,54.6,30.8,54.6,30.8c-0.1,0-0.1,0-0.1,0.1C54.5,30.8,54.5,30.8,54.6,30.8
					C54.6,30.8,54.6,30.8,54.6,30.8z"/>
				<path fill="#3A3A3A" d="M52,35.3c0.6-1.4,1.1-2.6,1.6-3.4C53,32.7,52.5,33.9,52,35.3z"/>
				<path fill="#F15A5B" d="M28.3,43.6c0.1-0.2,0.2-0.4,0.5-0.8c0.6-0.9,1.5-2.1,2.5-2.7c0.4-0.3,0.9-0.4,1.4-0.3c0,0,0.1,0,0.1,0
					c0.7,0.1,1.4,1,2,1.8c0.8,1.2,1.7,2.4,3,1.9c0.1,0,0.2-0.1,0.3-0.2c0.6-0.3,1.2-1,1.9-2c0.8-1.3,1.6-2,2.3-2.4
					c1.3-0.8,2.4-0.2,3.6,0.5c1.1,0.6,2.2,1.2,3.4,0.5c1.2-0.7,1.9-2.6,2.7-4.6c0.6-1.4,1.1-2.6,1.6-3.4c0,0,0,0,0,0c0,0,0,0,0,0
					c0.3-0.4,0.6-0.8,0.9-1c0,0,0.1,0,0.1-0.1c0,0,0,0,0,0c0.1-0.1,0.2-0.1,0.3-0.1c0,0,0.1,0,0.1,0c0.1,0,0.1,0,0.2,0
					c0,0,0.1,0,0.1,0l0.2-0.7c-0.4,0-0.7,0.1-1.1,0.3c-1.3,0.8-2.2,3-3,5c-0.7,1.8-1.4,3.5-2.3,4c-1.1,0.6-2,0.1-3.1-0.5
					c-1.1-0.7-2.4-1.4-4-0.5c-0.8,0.5-1.6,1.3-2.6,2.8c-0.6,0.9-1.1,1.4-1.6,1.7c-0.1,0-0.2,0.1-0.2,0.1c-1,0.4-1.9-0.7-2.6-1.8
					c-0.6-0.9-1.3-1.8-2.1-1.9c-0.6-0.1-1.2,0.1-1.7,0.4c-1.9,1.1-3.5,4-3.5,4l0.4,0.2C28.2,43.7,28.3,43.6,28.3,43.6z"/>
			</g>
		</g>
	</g>
	<path fill="#BDBDBD" d="M36,12c-2.3-0.9-6.1,9.8-9,11c-1.6,0.7-3.8-6.6-7-6c-3.5,0.6-4.7,6.8-7,9c-1.4,1.3-5,1-5,1v14l28-16V12
		L36,12z"/>
	<polyline fill="none" stroke="#3A3A3A" stroke-width="0.75" stroke-miterlimit="10" points="8,27 8,41 36,25 36,12 	"/>
	<path fill="#BDBDBD" d="M13,32c0,0,3.9-0.5,5-2c1.9-2.7,3.7-6.9,8-7c4-0.1,5.4,4.7,7,4c2.9-1.2,5.7-11.8,8-11v0v13L13,45V32L13,32z
		"/>
	<polyline fill="none" stroke="#3A3A3A" stroke-width="0.75" stroke-miterlimit="10" points="13,32 13,45 41,29 41,16 	"/>
	<path fill="#BDBDBD" d="M46,22c-2.3-0.9-5.1,7.8-8,9c-1.6,0.7-3.2-4.2-5-4s-3.7,1.7-5,4c-1.2,2.1-4.2,0.6-6,2c-1.5,1.2-4,6-4,6v10
		l28-16V22z"/>
	<polyline fill="none" stroke="#3A3A3A" stroke-width="0.75" stroke-miterlimit="10" points="18,39 18,49 46,33 46,22 	"/>
	<path fill="#BDBDBD" d="M23,42c0,0,2.2-4.3,4-5c2.1-0.8,3.1,0.2,5,1s3.2-4.8,5-5s5.4,2.7,7,2c2.9-1.2,3.4-9.4,7-8v10L23,53V42z"/>
	<polyline fill="none" stroke="#3A3A3A" stroke-width="0.75" stroke-miterlimit="10" points="23,42 23,53 51,37 51,27 	"/>
	<path fill="#BDBDBD" d="M28,44c0,0,2.1-4.7,4-5s3.1,3.2,5,4s4.2-4.8,6-5s4.4,2.7,6,2c2.9-1.2,4.7-12.9,7-12v13L28,57V44z"/>
	<polyline fill="none" stroke="#3A3A3A" stroke-width="0.75" stroke-miterlimit="10" points="28,44 28,57 56,41 56,28 	"/>
	<path fill="none" stroke="#F15A5B" stroke-width="0.75" stroke-linecap="round" stroke-miterlimit="10" d="M28,44c0,0,2.1-4.7,4-5
		s3.1,3.2,5,4s4.2-4.8,6-5s4.4,2.7,6,2c2.9-1.2,4.7-12.9,7-12"/>
	<path fill="none" stroke="#F15A5B" stroke-width="0.75" stroke-linecap="round" stroke-miterlimit="10" d="M23,42c0,0,2.2-4.3,4-5
		c2.1-0.8,3.1,0.2,5,1s3.2-4.8,5-5s5.4,2.7,7,2c2.9-1.2,3.4-9.4,7-8"/>
	<path fill="none" stroke="#F15A5B" stroke-width="0.75" stroke-linecap="round" stroke-miterlimit="10" d="M18,39c0,0,2.5-4.8,4-6
		c1.8-1.4,4.8,0.1,6-2c1.3-2.3,3.2-3.8,5-4s3.4,4.7,5,4c2.9-1.2,5.7-9.9,8-9"/>
	<path fill="none" stroke="#F15A5B" stroke-width="0.75" stroke-linecap="round" stroke-miterlimit="10" d="M13,32c0,0,3.9-0.5,5-2
		c1.9-2.7,3.7-6.9,8-7c4-0.1,5.4,4.7,7,4c2.9-1.2,5.7-11.8,8-11"/>
	<path fill="none" stroke="#F15A5B" stroke-width="0.75" stroke-linecap="round" stroke-miterlimit="10" d="M8,27c0,0,3.6,0.3,5-1
		c2.3-2.2,3.5-8.4,7-9c3.2-0.6,5.4,6.7,7,6c2.9-1.2,6.7-11.8,9-11"/>
</g>
<g id="Influence">
</g>
<g id="Replicator">
</g>
<g id="Mute">
</g>
<g id="Orient">
</g>
<g id="Flight">
</g>
<g id="ID">
</g>
<g id="Falloff">
</g>
<g id="Offset">
</g>
<g id="Waiter">
</g>
<g id="Curve">
</g>
<g id="Inherit">
</g>
<g id="Points">
</g>
<g id="Visibilty">
</g>
<g id="Distribute">
</g>
<g id="ReproUI">
</g>
</svg>
