<?xml version="1.0" encoding="utf-8"?>
<!-- Generator: Adobe Illustrator 21.0.0, SVG Export Plug-In . SVG Version: 6.00 Build 0)  -->
<svg version="1.1" baseProfile="basic" xmlns="http://www.w3.org/2000/svg" xmlns:xlink="http://www.w3.org/1999/xlink" x="0px"
	 y="0px" viewBox="0 0 19 20" xml:space="preserve">
<g id="Layer_2" display="none">
	<rect x="-390" y="-112" display="inline" fill="#686868" width="583" height="202"/>
</g>
<g id="UI">
</g>
<g id="Layer_1">
	<polygon fill="#F15A5B" points="11,4 9,2 7,4 8,4 8,8 10,8 10,4 	"/>
	<polygon fill="#F15A5B" points="9.6,15.3 13.8,16 14.5,11.8 13.1,12.8 9,7.3 7,8.7 11.1,14.3 	"/>
	<polygon fill="#F15A5B" points="15.6,10.1 17,7.4 14.3,6 14.7,7.2 8.2,9.3 8.8,11 15.2,8.9 	"/>
	<polygon fill="#F15A5B" points="4.3,6 2,7.2 3.2,9.5 3.5,8.5 11.4,11.1 11.9,9.6 4,7 	"/>
	<polygon fill="#F15A5B" points="3,13 3.6,16.7 7.3,16.1 6.1,15.2 9.6,10.3 7.9,9 4.3,13.9 	"/>
	<rect x="-1" fill="none" width="20" height="20"/>
	<circle fill="#BDBDBD" cx="9" cy="10" r="3"/>
</g>
<g id="Layer_3">
</g>
</svg>
