<?xml version="1.0" encoding="utf-8"?>
<!-- Generator: Adobe Illustrator 21.0.0, SVG Export Plug-In . SVG Version: 6.00 Build 0)  -->
<svg version="1.1" baseProfile="basic" xmlns="http://www.w3.org/2000/svg" xmlns:xlink="http://www.w3.org/1999/xlink" x="0px"
	 y="0px" viewBox="0 0 20 20" xml:space="preserve">
<g id="Layer_2" display="none">
	<rect x="-419" y="-82" display="inline" fill="#686868" width="583" height="202"/>
</g>
<g id="UI">
</g>
<g id="Layer_1">
</g>
<g id="Layer_3">
	<path fill="#F15A5B" d="M10,3C7,3,7,4,7,4v2h3v1H4c0,0-1,0-1,3s1,3,1,3h2v-1.5c0-1.1,0.9-2,2-2h4c0.6,0,1-0.4,1-1V4C13,4,13,3,10,3
		z M8.5,5C8.2,5,8,4.8,8,4.5S8.2,4,8.5,4S9,4.2,9,4.5S8.8,5,8.5,5z"/>
	<path fill="#BDBDBD" d="M10,17c3,0,3-1,3-1v-2h-3v-1h6c0,0,1,0,1-3s-1-3-1-3h-2v1.5c0,1.1-0.9,2-2,2H8c-0.6,0-1,0.4-1,1V16
		C7,16,7,17,10,17z M11.5,15c0.3,0,0.5,0.2,0.5,0.5S11.8,16,11.5,16S11,15.8,11,15.5S11.2,15,11.5,15z"/>
</g>
</svg>
