<?xml version="1.0" encoding="utf-8"?>
<!-- Generator: Adobe Illustrator 19.2.0, SVG Export Plug-In . SVG Version: 6.00 Build 0)  -->
<svg version="1.1" baseProfile="tiny" xmlns="http://www.w3.org/2000/svg" xmlns:xlink="http://www.w3.org/1999/xlink" x="0px"
	 y="0px" viewBox="0 0 64 64" xml:space="preserve">
<g id="BG" display="none">
	<polygon display="inline" fill="#444444" points="-120.5,-435.7 -120.5,-226.8 -120.5,20.7 -120.5,229.6 420.5,229.6 420.5,20.7 
		420.5,-226.8 420.5,-435.7 	"/>
</g>
<g id="Colour">
</g>
<g id="Time">
</g>
<g id="Breakout">
</g>
<g id="Repro">
</g>
<g id="Python">
</g>
<g id="PaintFX">
</g>
<g id="Explode">
</g>
<g id="SoUP">
</g>
<g id="Maths">
	<g>
		<g>
			<g>
				<path fill="#F15A5B" d="M9.5,44.1c-0.1,0-0.2,0-0.2-0.1c-0.1-0.1-0.2-0.3-0.1-0.5L9.5,43c0.1-0.2,0.2-0.4,0.4-0.7
					c0.6-1,1.3-2.1,2-3.2c0.9-1.4,1.9-2.9,3-4.4c0.2-0.3,0.5-0.7,0.7-1l0.2-0.2c0.3-0.4,0.6-0.8,0.9-1.2c0.4-0.6,0.8-1.1,1.2-1.7
					l-1.5-3.7l-0.1-0.3c-0.2-0.5-0.4-1-0.6-1.5c-0.2-0.6-0.5-1.1-0.8-1.7c-0.3-0.5-0.5-1-0.8-1.5c-0.3-0.5-0.6-0.9-0.9-1.2
					c-0.3-0.3-0.5-0.5-0.7-0.5c0,0,0,0,0,0c-0.2,0-0.4,0.1-0.6,0.2c-0.3,0.2-0.6,0.6-0.8,0.8c-0.3,0.3-0.5,0.7-0.7,1
					c-0.4,0.6-0.7,1.2-1,1.8l-0.3,0.6c-0.1,0.3-0.2,0.5-0.3,0.6l-0.2,0.4c-0.1,0.1-0.2,0.2-0.3,0.2c0,0-0.1,0-0.1,0
					c-0.2-0.1-0.3-0.2-0.2-0.4l0.1-0.7C8,24.4,8.1,24,8.2,23.5c0.2-0.6,0.4-1.3,0.7-2.1c0.2-0.4,0.4-0.9,0.6-1.3
					c0.2-0.4,0.5-0.9,1-1.4c0.3-0.3,0.6-0.5,0.9-0.7c0.4-0.2,0.8-0.3,1.2-0.3c0.5,0,1,0.1,1.4,0.3c0.3,0.2,0.6,0.4,1,0.7
					c0.6,0.5,1,1.1,1.4,1.5c0.4,0.6,0.8,1.1,1.1,1.7c0.3,0.5,0.6,1.1,0.9,1.8c0.3,0.6,0.6,1.2,0.9,1.8c0.3,0.7,0.6,1.4,0.9,2.1
					c0.1-0.1,0.2-0.2,0.2-0.3c0.3-0.4,0.6-0.8,1-1.2l0.1-0.1c0.3-0.4,0.6-0.7,0.9-1c1.2-1.4,2.4-2.8,3.5-4c1.2-1.2,2.1-2.2,2.7-2.7
					c0.2-0.2,0.4-0.4,0.6-0.5l0.5-0.5c0.1-0.1,0.2-0.1,0.3-0.1c0.1,0,0.2,0,0.2,0.1c0.1,0.1,0.2,0.3,0.1,0.5l-0.3,0.6
					c-0.1,0.2-0.2,0.4-0.4,0.7c-0.4,0.7-1.1,1.8-2,3.2c-0.9,1.4-1.9,2.9-3,4.4c-0.3,0.4-0.5,0.8-0.8,1.1c-0.3,0.5-0.6,0.9-0.9,1.3
					c-0.4,0.6-0.8,1.1-1.3,1.7l0.9,2.2l0.7,1.8c0.2,0.6,0.5,1.2,0.7,1.7c0.4,1,0.9,2.1,1.5,3.1c0.3,0.5,0.6,0.8,0.8,1.2
					c0.3,0.3,0.6,0.5,0.8,0.6c0.1,0.1,0.2,0.1,0.4,0.1c0.1,0,0.2,0,0.3-0.1c0.3-0.1,0.5-0.3,0.8-0.5c0.3-0.2,0.5-0.5,0.7-0.7
					c0.2-0.2,0.4-0.5,0.6-0.7c0.3-0.5,0.6-0.8,0.8-1.1l0.3-0.4c0.1-0.1,0.2-0.2,0.3-0.2c0.1,0,0.1,0,0.2,0c0.2,0.1,0.3,0.3,0.2,0.4
					l-0.1,0.5L31.3,39c-0.1,0.3-0.2,0.7-0.4,1.1c-0.2,0.5-0.6,1.3-1.2,2c-0.4,0.5-0.8,0.8-1.2,1.1c-0.3,0.2-0.6,0.3-1,0.3
					c-0.2,0-0.3,0-0.5,0c-0.2,0-0.4,0-0.7-0.1c-0.6-0.1-1.2-0.5-1.9-1c-0.4-0.4-0.8-0.8-1.3-1.4c-0.7-0.9-1.3-1.9-2.1-3.3
					c-0.3-0.6-0.6-1.2-0.9-1.8c-0.3-0.6-0.6-1.2-0.8-1.8c0,0-0.2-0.4-0.2-0.5c-0.1,0.1-0.2,0.2-0.2,0.3c-0.3,0.4-0.6,0.8-1,1.2
					l-0.2,0.3c-0.2,0.3-0.5,0.6-0.7,0.9c-1.2,1.4-2.4,2.8-3.5,4c-0.9,1-1.9,1.9-2.7,2.7c-0.2,0.2-0.4,0.4-0.6,0.6L9.7,44
					C9.7,44.1,9.6,44.1,9.5,44.1z"/>
				<path fill="#3A3A3A" d="M29.9,17.7L29.9,17.7 M29.9,17.7c0,0-0.1,0.1-0.2,0.3c-0.1,0.2-0.3,0.5-0.5,0.9c-0.5,0.8-1.1,1.9-2,3.2
					c-0.8,1.3-1.9,2.8-3,4.4c-0.3,0.4-0.6,0.8-0.9,1.2c-0.3,0.4-0.6,0.8-0.9,1.2c-0.5,0.6-0.9,1.2-1.4,1.8c0.3,0.8,0.6,1.6,0.9,2.4
					c0.2,0.6,0.5,1.2,0.7,1.8c0.2,0.6,0.5,1.2,0.7,1.7c0.5,1.1,1,2.2,1.6,3.1c0.3,0.5,0.6,0.9,0.9,1.2c0.3,0.3,0.6,0.6,0.9,0.7
					c0.2,0.1,0.3,0.1,0.5,0.1c0.1,0,0.3,0,0.5-0.1c0.3-0.1,0.7-0.3,0.9-0.6c0.3-0.2,0.5-0.5,0.8-0.8c0.2-0.3,0.4-0.5,0.6-0.7
					c0.3-0.5,0.6-0.8,0.8-1.1c0.2-0.3,0.3-0.4,0.3-0.4s0,0.2-0.1,0.5c-0.1,0.3-0.2,0.8-0.5,1.3c-0.2,0.5-0.6,1.2-1.1,1.9
					c-0.3,0.3-0.6,0.7-1.1,1c-0.2,0.1-0.5,0.2-0.9,0.3c-0.1,0-0.3,0-0.4,0c-0.2,0-0.4,0-0.6-0.1c-0.7-0.1-1.2-0.5-1.7-0.9
					c-0.5-0.4-0.9-0.9-1.3-1.4c-0.8-1-1.4-2.1-2-3.2c-0.3-0.6-0.6-1.2-0.9-1.8c-0.3-0.6-0.6-1.2-0.8-1.8c-0.2-0.4-0.3-0.7-0.5-1.1
					c-0.2,0.3-0.4,0.5-0.6,0.8c-0.3,0.4-0.6,0.8-1,1.2c-0.3,0.4-0.6,0.8-1,1.1c-1.3,1.5-2.5,2.8-3.5,4c-1.1,1.1-2,2.1-2.6,2.7
					c-0.3,0.3-0.6,0.6-0.8,0.7c-0.2,0.2-0.3,0.3-0.3,0.3s0.1-0.1,0.2-0.3c0.1-0.2,0.3-0.5,0.5-0.9c0.5-0.8,1.1-1.9,2-3.2
					c0.8-1.3,1.9-2.8,3-4.4c0.3-0.4,0.6-0.8,0.9-1.2c0.3-0.4,0.6-0.8,0.9-1.2c0.5-0.6,0.9-1.2,1.4-1.8c0-0.1-0.1-0.2-0.1-0.2
					c-0.5-1.2-1-2.5-1.5-3.7c-0.2-0.6-0.5-1.2-0.7-1.8c-0.2-0.6-0.5-1.1-0.8-1.7c-0.3-0.5-0.5-1.1-0.8-1.5c-0.3-0.5-0.6-0.9-0.9-1.3
					c-0.3-0.3-0.6-0.6-0.9-0.6c0,0-0.1,0-0.2,0c-0.2,0-0.5,0.1-0.7,0.3c-0.3,0.2-0.6,0.6-0.9,0.9c-0.3,0.3-0.5,0.7-0.7,1
					c-0.4,0.7-0.8,1.3-1.1,1.8c-0.3,0.5-0.5,0.9-0.6,1.2c-0.1,0.3-0.2,0.4-0.2,0.4s0-0.2,0.1-0.5c0.1-0.3,0.2-0.8,0.3-1.3
					c0.2-0.6,0.4-1.3,0.7-2.1c0.2-0.4,0.3-0.8,0.6-1.2c0.2-0.4,0.5-0.9,1-1.3c0.2-0.2,0.5-0.4,0.8-0.6c0.3-0.2,0.7-0.3,1.1-0.3
					c0,0,0,0,0.1,0c0.4,0,0.8,0.1,1.2,0.3c0.3,0.2,0.6,0.4,0.9,0.6c0.5,0.4,0.9,1,1.3,1.5c0.4,0.5,0.7,1.1,1.1,1.7
					c0.3,0.6,0.6,1.2,0.9,1.8c0.3,0.6,0.6,1.2,0.8,1.8c0.4,0.9,0.8,1.8,1.1,2.6c0.2-0.3,0.4-0.5,0.6-0.8c0.3-0.4,0.6-0.8,1-1.2
					c0.3-0.4,0.6-0.8,1-1.1c1.3-1.5,2.5-2.8,3.5-4c1.1-1.1,2-2.1,2.6-2.7c0.3-0.3,0.6-0.6,0.8-0.7C29.8,17.8,29.9,17.7,29.9,17.7
					 M31.2,38.3L31.2,38.3 M29.9,17C29.9,17,29.9,17,29.9,17C29.9,17,29.9,17,29.9,17C29.9,17,29.9,17,29.9,17
					C29.9,17,29.9,17,29.9,17C29.9,17,29.9,17,29.9,17c-0.2,0-0.4,0.1-0.5,0.2l-0.3,0.3l-0.2,0.2c-0.2,0.1-0.4,0.3-0.6,0.6
					c-0.6,0.5-1.5,1.5-2.7,2.7c-1.1,1.2-2.4,2.6-3.6,4c-0.3,0.4-0.6,0.7-0.9,1.1c-0.3,0.3-0.6,0.7-0.8,1c-0.2-0.5-0.4-1-0.6-1.5
					c-0.3-0.6-0.6-1.2-0.9-1.8c-0.4-0.7-0.7-1.3-1-1.8c-0.3-0.6-0.7-1.2-1.1-1.7c-0.4-0.5-0.8-1.1-1.5-1.6c-0.4-0.3-0.7-0.5-1.1-0.7
					c-0.5-0.2-1-0.4-1.5-0.4l-0.1,0c-0.6,0-1.1,0.2-1.4,0.3c-0.4,0.2-0.7,0.4-1,0.7C9.7,19,9.4,19.6,9.2,20
					c-0.2,0.4-0.4,0.9-0.6,1.3c-0.3,0.8-0.5,1.5-0.7,2.1c-0.1,0.5-0.2,0.9-0.3,1.2l0,0.2l-0.1,0.5c-0.1,0.4,0.1,0.7,0.5,0.8
					c0.1,0,0.2,0,0.2,0c0.3,0,0.5-0.2,0.7-0.4l0.2-0.4c0.1-0.2,0.2-0.4,0.3-0.6l0.3-0.6c0.3-0.6,0.7-1.2,1-1.8
					c0.2-0.3,0.4-0.6,0.7-0.9c0.2-0.2,0.5-0.5,0.8-0.7c0.2-0.1,0.3-0.2,0.3-0.2c0,0,0.2,0.1,0.5,0.4c0.3,0.3,0.6,0.7,0.8,1.1
					c0.3,0.5,0.5,1,0.8,1.5c0.3,0.5,0.5,1.1,0.8,1.7c0.2,0.5,0.4,1,0.6,1.5L16,27l0.8,2l0.6,1.5c-0.4,0.5-0.8,1-1.1,1.5
					c-0.3,0.4-0.6,0.8-0.9,1.2l-0.2,0.2c-0.2,0.3-0.5,0.6-0.7,1c-1.1,1.5-2.1,3-3,4.4c-0.9,1.4-1.6,2.6-2,3.2
					c-0.2,0.3-0.3,0.5-0.4,0.7L9,43.1l-0.2,0.3c-0.2,0.3-0.1,0.7,0.2,0.9c0.1,0.1,0.3,0.2,0.5,0.2c0.2,0,0.4-0.1,0.5-0.2l0.3-0.3
					l0.2-0.2c0.2-0.2,0.4-0.3,0.6-0.6c0.6-0.5,1.5-1.5,2.7-2.7c1.1-1.2,2.4-2.6,3.6-4c0.3-0.3,0.5-0.6,0.8-0.9l0.2-0.2
					c0.3-0.3,0.5-0.7,0.8-1c0.3,0.6,0.5,1.2,0.8,1.8c0.3,0.6,0.6,1.2,0.9,1.8c0.7,1.4,1.4,2.4,2.1,3.3c0.5,0.6,0.9,1.1,1.4,1.5
					c0.7,0.6,1.3,0.9,2,1.1C26.5,44,26.7,44,27,44c0.2,0,0.4,0,0.5,0c0.4-0.1,0.8-0.2,1.1-0.4c0.5-0.3,0.9-0.7,1.3-1.2
					c0.6-0.8,1-1.5,1.2-2.1c0.2-0.5,0.3-0.9,0.4-1.2l0.1-0.2l0.1-0.4c0-0.1,0.1-0.2,0.1-0.3c0-0.4-0.3-0.7-0.7-0.7c0,0,0,0,0,0
					c0,0,0,0-0.1,0c-0.1,0-0.2,0.1-0.3,0.1c-0.1,0-0.1,0.1-0.2,0.2c0,0,0,0,0,0.1l-0.3,0.4c-0.2,0.2-0.4,0.6-0.8,1.1
					c-0.2,0.2-0.3,0.4-0.6,0.7c-0.2,0.2-0.4,0.5-0.7,0.7c-0.3,0.2-0.5,0.4-0.7,0.4c-0.1,0-0.2,0-0.2,0c-0.1,0-0.1,0-0.2,0
					c-0.2-0.1-0.5-0.3-0.7-0.5c-0.3-0.3-0.5-0.7-0.8-1.1c-0.6-1-1.1-2.1-1.5-3c-0.2-0.6-0.5-1.1-0.7-1.7l-0.1-0.2L22.7,33l-0.8-2
					c0.4-0.5,0.8-1,1.2-1.5c0.3-0.4,0.6-0.8,0.9-1.2c0.3-0.4,0.6-0.8,0.9-1.2c1.1-1.5,2.1-3,3-4.4c0.9-1.4,1.6-2.6,2-3.2
					c0.2-0.3,0.3-0.5,0.4-0.7l0.1-0.2l0.2-0.3c0.1-0.1,0.1-0.3,0.1-0.4C30.6,17.3,30.3,17,29.9,17L29.9,17C29.9,17,29.9,17,29.9,17
					L29.9,17z M29.9,18.5L29.9,18.5L29.9,18.5L29.9,18.5z"/>
			</g>
		</g>
		<g>
			<g>
				<path fill="#BDBDBD" d="M39,46.3c-1.1,0-1.8-0.6-1.8-1.6c0-1.1,0.8-2.1,2.4-2.8c1-0.5,1.5-0.7,1.6-0.9c0.2-0.2,0.4-0.5,0.8-1.3
					l1.6-4l-6.5-13.9c-0.7-1.5-1.1-2-1.4-2.2c-0.3-0.3-0.9-0.4-1.7-0.4h-0.4v-1.7h8.8v1.7l-0.4,0c-1.3,0-1.7,0.3-1.7,0.5
					c0,0.1,0.1,0.4,0.8,1.9l4.4,9.4l3.7-8.9c0.8-1.8,0.8-2.2,0.8-2.2c0-0.6-1.3-0.7-2-0.7l-0.4,0v-1.7h6.9v1.7l-0.4,0
					c-0.8,0-1.5,0.3-1.8,0.6c-0.4,0.4-0.9,1.4-1.6,2.9l-7.8,18.8c-0.8,1.8-1.4,3.1-2,3.8C40.5,46,39.8,46.3,39,46.3z"/>
				<path fill="#3A3A3A" d="M54.4,17.8v1c-1,0-1.6,0.3-2.1,0.8c-0.4,0.5-1,1.5-1.6,3.1l-7.8,18.8c-0.7,1.8-1.4,3-2,3.7
					c-0.6,0.6-1.2,1-1.9,1c-0.9,0-1.4-0.4-1.4-1.3c0-1,0.7-1.8,2.2-2.5c0.9-0.4,1.4-0.7,1.7-1c0.3-0.3,0.6-0.8,0.9-1.5l1.7-4.2
					l-6.6-14.1c-0.6-1.2-1.1-2-1.4-2.3c-0.4-0.3-1-0.5-2-0.5v-1h8v1c-1.4,0-2.1,0.3-2.1,0.9c0,0.2,0.3,0.9,0.8,2.1l4.8,10.2l4-9.7
					c0.6-1.4,0.9-2.2,0.9-2.4c0-0.7-0.8-1.1-2.4-1.1v-1H54.4 M55.1,17h-0.8h-6.1h-0.8v0.8v1v0.7l0.7,0c1.3,0,1.6,0.3,1.6,0.3
					c0,0.2-0.2,0.6-0.8,2.1l-3.4,8.1l-4.1-8.7c-0.5-1-0.7-1.5-0.7-1.7c0.1-0.1,0.5-0.2,1.3-0.2l0.7,0v-0.7v-1V17h-0.8h-8h-0.8v0.8v1
					v0.8h0.8c1,0,1.3,0.2,1.5,0.3c0.1,0.1,0.5,0.6,1.3,2.1l6.4,13.8l-1.5,3.9c-0.3,0.8-0.6,1.1-0.7,1.2c-0.1,0.1-0.5,0.4-1.5,0.8
					c-1.8,0.8-2.7,1.9-2.7,3.1c0,1.3,0.8,2,2.1,2c0.9,0,1.7-0.4,2.4-1.2c0.6-0.7,1.3-2,2.1-3.9l7.8-18.8c0.8-1.8,1.2-2.6,1.5-2.8
					c0.3-0.3,0.8-0.5,1.6-0.5l0.7,0v-0.7v-1V17L55.1,17z"/>
			</g>
		</g>
	</g>
</g>
<g id="Deformer">
</g>
<g id="Spring">
</g>
<g id="Merge">
</g>
<g id="Delay">
</g>
<g id="Symmetry">
</g>
<g id="Audio">
</g>
<g id="Trig">
</g>
<g id="Transform">
</g>
<g id="Random">
</g>
<g id="Initial_State">
</g>
<g id="Trails">
</g>
<g id="Noise">
</g>
<g id="Influence">
</g>
<g id="Replicator">
</g>
<g id="Mute">
</g>
<g id="Orient">
</g>
<g id="Flight">
</g>
<g id="ID">
</g>
<g id="Falloff">
</g>
<g id="Offset">
</g>
<g id="Waiter">
</g>
<g id="Curve">
</g>
<g id="Inherit">
</g>
<g id="Points">
</g>
<g id="Visibilty">
</g>
<g id="Distribute">
</g>
<g id="ReproUI">
</g>
</svg>
