<?xml version="1.0" encoding="utf-8"?>
<!-- Generator: Adobe Illustrator 21.0.0, SVG Export Plug-In . SVG Version: 6.00 Build 0)  -->
<svg version="1.1" baseProfile="basic" xmlns="http://www.w3.org/2000/svg" xmlns:xlink="http://www.w3.org/1999/xlink" x="0px"
	 y="0px" viewBox="0 0 20 20" xml:space="preserve">
<g id="Layer_2" display="none">
	<rect x="-299" y="-82" display="inline" fill="#686868" width="583" height="202"/>
</g>
<g id="UI">
</g>
<g id="Layer_1">
	<g>
		<polygon fill="#BDBDBD" points="4,12 6,13 6,15 4,16 2,15 2,13 		"/>
		<polygon fill="#BDBDBD" points="4,8 6,9 6,11 4,12 2,11 2,9 		"/>
		<polygon fill="#BDBDBD" points="4,4 6,5 6,7 4,8 2,7 2,5 		"/>
		<polygon fill="#FFFFFF" points="2,13 4,14 4,16 2,15 		"/>
		<polygon fill="#FFFFFF" points="2,9 4,10 4,12 2,11 		"/>
		<polygon fill="#FFFFFF" points="2,5 4,6 4,8 2,7 		"/>
	</g>
	<g>
		<polygon fill="#BDBDBD" points="7,13.5 9,14.5 9,16.5 7,17.5 5,16.5 5,14.5 		"/>
		<polygon fill="#BDBDBD" points="7,9.5 9,10.5 9,12.5 7,13.5 5,12.5 5,10.5 		"/>
		<polygon fill="#BDBDBD" points="7,5.5 9,6.5 9,8.5 7,9.5 5,8.5 5,6.5 		"/>
		<polygon fill="#FFFFFF" points="5,14.5 7,15.5 7,17.5 5,16.5 		"/>
		<polygon fill="#FFFFFF" points="5,10.5 7,11.5 7,13.5 5,12.5 		"/>
		<polygon fill="#FFFFFF" points="5,6.5 7,7.5 7,9.5 5,8.5 		"/>
	</g>
	<polygon fill="#BDBDBD" points="16,12 14,13 14,15 16,16 18,15 18,13 	"/>
	<polygon fill="#BDBDBD" points="16,8 14,9 14,11 16,12 18,11 18,9 	"/>
	<polygon fill="#BDBDBD" points="16,4 14,5 14,7 16,8 18,7 18,5 	"/>
	<polygon fill="#BDBDBD" points="10,1 8,2 8,4 10,5 12,4 12,2 	"/>
	<polygon fill="#BDBDBD" points="10,4 8,5 8,7 10,8 12,7 12,5 	"/>
	<polygon fill="#BDBDBD" points="7,2.5 5,3.5 5,5.5 7,6.5 9,5.5 9,3.5 	"/>
	<polygon fill="#BDBDBD" points="13,2.5 11,3.5 11,5.5 13,6.5 15,5.5 15,3.5 	"/>
	<g>
		<polygon fill="#BDBDBD" points="13,13.5 11,14.5 11,16.5 13,17.5 15,16.5 15,14.5 		"/>
		<polygon fill="#BDBDBD" points="13,9.5 11,10.5 11,12.5 13,13.5 15,12.5 15,10.5 		"/>
		<polygon fill="#BDBDBD" points="13,5.5 11,6.5 11,8.5 13,9.5 15,8.5 15,6.5 		"/>
	</g>
	<polygon fill="#F15A5B" points="10,15 12,16 12,18 10,19 8,18 8,16 	"/>
	<polygon fill="#BDBDBD" points="10,11 12,12 12,14 10,15 8,14 8,12 	"/>
	<polygon fill="#BDBDBD" points="10,7 12,8 12,10 10,11 8,10 8,8 	"/>
	<polygon fill="#FFFFFF" points="8,12 10,13 10,15 8,14 	"/>
	<polygon fill="#FFFFFF" points="8,8 10,9 10,11 8,10 	"/>
</g>
<g id="Layer_3">
</g>
</svg>
