<?xml version="1.0" encoding="utf-8"?>
<!-- Generator: Adobe Illustrator 21.0.0, SVG Export Plug-In . SVG Version: 6.00 Build 0)  -->
<svg version="1.1" baseProfile="basic" xmlns="http://www.w3.org/2000/svg" xmlns:xlink="http://www.w3.org/1999/xlink" x="0px"
	 y="0px" viewBox="0 0 20 20" xml:space="preserve">
<g id="Layer_2" display="none">
	<rect x="-299" y="-52" display="inline" fill="#686868" width="583" height="202"/>
</g>
<g id="UI">
</g>
<g id="Layer_1">
</g>
<g id="Layer_3">
	<polygon fill="#BDBDBD" points="5,13.5 8,11.5 8,8 5,6 2,8 2,11.5 	"/>
	<polygon fill="#FFFFFF" points="2,8 2,11.5 5,13.5 5,10 	"/>
	<polygon fill="#BDBDBD" points="15,13.5 12,11.5 12,8 15,6 18,8 18,11.5 	"/>
	<polygon fill="#FFFFFF" points="18,8 18,11.5 15,13.5 15,10 	"/>
	<rect x="9" y="3" fill="#F15A5B" width="2" height="2"/>
	<rect x="9" y="6" fill="#F15A5B" width="2" height="2"/>
	<rect x="9" y="9" fill="#F15A5B" width="2" height="2"/>
	<rect x="9" y="12" fill="#F15A5B" width="2" height="2"/>
	<rect x="9" y="15" fill="#F15A5B" width="2" height="2"/>
</g>
</svg>
