<?xml version="1.0" encoding="utf-8"?>
<!-- Generator: Adobe Illustrator 19.2.0, SVG Export Plug-In . SVG Version: 6.00 Build 0)  -->
<svg version="1.1" baseProfile="tiny" xmlns="http://www.w3.org/2000/svg" xmlns:xlink="http://www.w3.org/1999/xlink" x="0px"
	 y="0px" viewBox="0 0 64 64" xml:space="preserve">
<g id="BG" display="none">
	<polygon display="inline" fill="#444444" points="-120.5,-231.7 -120.5,-22.8 -120.5,224.7 -120.5,433.6 420.5,433.6 420.5,224.7 
		420.5,-22.8 420.5,-231.7 	"/>
</g>
<g id="Colour">
</g>
<g id="Time">
</g>
<g id="Breakout">
</g>
<g id="Repro">
</g>
<g id="Python">
</g>
<g id="PaintFX">
</g>
<g id="Explode">
</g>
<g id="SoUP">
</g>
<g id="Maths">
</g>
<g id="Deformer">
</g>
<g id="Spring">
</g>
<g id="Merge">
</g>
<g id="Delay">
</g>
<g id="Symmetry">
</g>
<g id="Audio">
</g>
<g id="Trig">
</g>
<g id="Transform">
</g>
<g id="Random">
</g>
<g id="Initial_State">
</g>
<g id="Trails">
</g>
<g id="Noise">
</g>
<g id="Influence">
</g>
<g id="Replicator">
</g>
<g id="Mute">
	<g>
		<circle fill="#BDBDBD" stroke="#3A3A3A" stroke-width="0.75" stroke-miterlimit="10" cx="31.4" cy="31.8" r="13.3"/>
		<g>
			<path fill="#F15A5B" d="M48.4,33.1c-0.7,0-1.3-0.6-1.3-1.3s0.6-1.3,1.3-1.3H56c0.7,0,1.3,0.6,1.3,1.3s-0.6,1.3-1.3,1.3H48.4z"/>
			<path fill="#3A3A3A" d="M56,30.9c0.5,0,0.9,0.4,0.9,0.9c0,0.5-0.4,0.9-0.9,0.9h-7.6c-0.5,0-0.9-0.4-0.9-0.9
				c0-0.5,0.4-0.9,0.9-0.9H56 M56,30.2h-7.6c-0.9,0-1.7,0.7-1.7,1.7s0.7,1.7,1.7,1.7H56c0.9,0,1.7-0.7,1.7-1.7S56.9,30.2,56,30.2
				L56,30.2z"/>
		</g>
		<g>
			<path fill="#F15A5B" d="M10.3,36.9c-0.7,0-1.3-0.6-1.3-1.3v-2.5H6.5c-0.7,0-1.3-0.6-1.3-1.3s0.6-1.3,1.3-1.3H9V28
				c0-0.7,0.6-1.3,1.3-1.3s1.3,0.6,1.3,1.3v2.5h2.5c0.7,0,1.3,0.6,1.3,1.3s-0.6,1.3-1.3,1.3h-2.5v2.5C11.6,36.4,11,36.9,10.3,36.9z"
				/>
			<path fill="#3A3A3A" d="M10.3,27.1c0.5,0,0.9,0.4,0.9,0.9v2.9h2.9c0.5,0,0.9,0.4,0.9,0.9c0,0.5-0.4,0.9-0.9,0.9h-2.9v0v2.9
				c0,0.5-0.4,0.9-0.9,0.9s-0.9-0.4-0.9-0.9v-2.9v0H6.5c-0.5,0-0.9-0.4-0.9-0.9c0-0.5,0.4-0.9,0.9-0.9h2.9V28
				C9.4,27.5,9.8,27.1,10.3,27.1 M10.3,26.3c-0.9,0-1.7,0.7-1.7,1.7v2.1H6.5c-0.9,0-1.7,0.7-1.7,1.7s0.7,1.7,1.7,1.7h2.1v2.1
				c0,0.9,0.7,1.7,1.7,1.7c0.9,0,1.7-0.7,1.7-1.7v-2.1h2.1c0.9,0,1.7-0.7,1.7-1.7s-0.7-1.7-1.7-1.7H12V28
				C12,27.1,11.3,26.3,10.3,26.3L10.3,26.3z"/>
		</g>
		<circle fill="#F15A5B" stroke="#3A3A3A" stroke-width="0.75" stroke-miterlimit="10" cx="40.8" cy="31.8" r="1.4"/>
	</g>
</g>
<g id="Orient">
</g>
<g id="Flight">
</g>
<g id="ID">
</g>
<g id="Falloff">
</g>
<g id="Offset">
</g>
<g id="Waiter">
</g>
<g id="Curve">
</g>
<g id="Inherit">
</g>
<g id="Points">
</g>
<g id="Visibilty">
</g>
<g id="Distribute">
</g>
<g id="ReproUI">
</g>
</svg>
